<?xml version="1.0" encoding="UTF-8"?>
<svg id="Layer_2" data-name="Layer 2" xmlns="http://www.w3.org/2000/svg" viewBox="0 0 343 332.57">
  <defs>
    <style>
      .cls-1 {
        fill: #ededed;
      }
    </style>
  </defs>
  <g id="Layer_1-2" data-name="Layer 1">
    <g id="bihmap">
      <path id="una-sana-canton" class="cls-1" d="M100.79,99.22c-2.29,4.15-5.62,4.58-12.55,2.29-6.92-2.29-18.43-6.54-18.82-4.03-.29,1.87-.5,3.04,1.67,5.26-.55.54-1.08,1.19-1.28,1.84-.21.69-.28,1.16-.39,1.52-.03.1-.06.19-.11.27-.04.09-.09.18-.14.26-.15.2-.37.38-.71.58-.82.5-1.33.64-1.71,1-.14.12-.25.26-.36.45s-.21.32-.32.41c-.35.28-.81.22-2.01.58-1.59.47-2.21.47-3.2.88-.99.39-.58.65-2.04.68-1.45.03-1.26-.65-3.01,0-1.75.66-1.42.98-2.25.8-.85-.18-3.08-.49-3.92-.12-.32.14-.58.32-.8.54-.08.07-.15.14-.22.22-.27.31-.48.68-.69,1.1-.31.62-.2,1.09-.48,1.36-.09.09-.23.16-.45.21-.83.19-1.33-.37-2.48-.34h-.42s0-.01-.01,0t.01,0s0,.01-.01.02-.05.04-.12.08c-.03.02-.07.04-.12.07h-.01c-.15-.12-.28-.25-.37-.33l-.31.6s-.11.03-.18.05l-.19-.91c-1.26-1.43-3.4-2.71-5.36-2.59l-.32.39.05-.96c.6-.58,1.54-1.03,1.84-1.89.35-2.78-1.93-7.69-2.77-10.29-.37-1.83-.63-4.54-2.05-5.91l-1.87-.32-3.19,1.42-1.82-.21-1.8-1.95.7-1.97,1.44-1.88.39-1.62c.11-.06.8-.39.87-.49-.23-1.37-.61-3.24-1.45-4.38-1.48-.94-3.89-.5-5.21-1.79l-1.17-1.73c-.19-1.09-.71-3.67-1.61-4.42l-.67-.07c-.33.26-1.05.57-1.47.62-1.53-1.12-.71-3.71-2.13-4.9l-1.1-.07c-.69.67-1.03,1.95-1.74,2.61-.47.28-1.79.36-2.33.39-.49.22-1.59.43-2.13.49-.91-.74-1.35-2.29-2-3.23l-2.06-1.42C2.29,66.11-.22,62.73.02,59.84l1.29-1.71c.86-.21,2.54-.83,3.32-1.28l.43-2.19c-.3-1.27-1.43-3.55-2.24-4.58l-1.21-2.49c-.04-.71-.49-3.41-.02-4.02.51-2.11,3.09-5.01,2.94-7.31-2.53-6.53.33-7.58,1.44-13.39.03-3.06-1.36-9.78,1.65-11.9h0l1.95-1.79c2.93-.91,10.09-.74,13.16-.55,1.92-.47,3.75-.82,4.8,1.28.1.8-.36,1.82-.42,2.59.4.57,2.06.91,2.69.99,2.22,1.24,3.37,5.78,4.31,7.96.75,1.51,8.26,8.7,9.57,10.07,3.03,1.91,7.55,4.66,11.21,3.18.1-.4.27-1.03.47-1.73.34.36.99,1.22.74,2.09-.33,1.16-1.92,2.23-4.39,3.01-2.47.78-3.99,2.26-3.77,4.33.22,2.07,2,4.65,2.77,5.25.77.59,3.01,1.52,8.81,1.88,5.81.35,23.03,1.96,27.06,3.62,4.04,1.66,10.77,8,11.58,12.25.82,4.25.17,8.04.44,9.21.28,1.16.52,1.41.52,1.41,0,0,1.66-1.05,2.26-.16.6.89,1.69,19.21-.6,23.36Z"/>
      <path id="canton-10" class="cls-1" d="M159.27,202.86c.06,1.47.17,1.75-1.14,3.88-1.31,2.12-.33.38-2.4,1.96-2.08,1.58-1.36.55-3.06.98-1.68.43-1.03.27-2.72.66-1.7.38-1.48.38-3.61,1.2-2.14.82-1.14.54-2.06,1.03-.94.49-1.43.6-2.33.96-.91.35-1.17.46-2.47,1-1.31.55-.61.12-1.76-.05-1.14-.16-.98-.44-2.39-1.31-1.42-.87-.27-.38-1.91-1.69-1.63-1.31,0,0-.93.16-.93.17-.87.76-1.52,1.15-.66.38-1.7.43-2.96.6-1.25.16-1.9.38-2.94.55-1.03.16-1.74.71-2.62.99-.87.3-4.12.86-4.12.86,0,0-.31-.23-.81-.46h-.01c-5.24-5.12-15.33-16.43-20.13-20.97-1.25-1.15-10.86-8.09-11.03-9.82-.69-1.86-.92-4.62-1.73-6.42-1.98-1.56-5.2-5.19-6.48-7.36-1.91-1.78-5.6-5.85-6.81-8.15v-.04c-2.01-3.4-4.04-4.54-7.72-5.63-.48-.74-.99-2.37-1.11-3.24l-1.14-1.88c-1.01-.69-2.99,0-4.11-.26-4.83-2.36-5.49-8.07-8.05-12.15-1.18-1.25-4.5-4.71-5.25-6.22-.92-3.01-2.63-7.8-2.56-10.97.02-.89.77-2.54,1.15-3.34.26-.72.54-2.38.52-3.17l1.65.27c-.2-.18-.56-.52-.86-.82h-.01c.06-.03.1-.06.13-.07.07-.04.11-.07.12-.08s.01-.02.01-.02h0s0-.02-.01,0h0s.06,0,.18,0c.06,0,.14,0,.25-.01,1.15-.03,1.65.52,2.48.34.21-.04.35-.11.45-.2.28-.27.17-.74.48-1.36.21-.42.42-.79.69-1.1.07-.08.14-.15.22-.22.22-.23.48-.41.8-.55.84-.37,3.07-.07,3.92.12.83.18.5-.14,2.25-.8,1.75-.65,1.56.03,3.01,0,1.46-.04,1.05-.29,2.04-.69.99-.41,1.61-.41,3.2-.87,1.2-.36,1.66-.3,2.01-.57.11-.09.21-.22.32-.41s.22-.33.36-.45c.38-.37.89-.51,1.71-1.01.34-.2.55-.38.71-.57.05-.08.1-.17.14-.26.05-.08.08-.17.11-.27.11-.36.18-.83.39-1.52.2-.65.73-1.3,1.28-1.84.73.74,1.75,1.62,3.14,2.69,5.45,4.2,11.6,10.04,13.46,10.72,1.72.66,3.2.22,3.7.54.03.01.06.03.09.06h0c.13.16.36.8.67,1.63.08.22.17.45.27.7.03.09.06.17.1.26.1.25.2.5.32.76-.01.01,0,.01,0,.01.45,1.03.99,2.04,1.61,2.67.1.1.21.2.32.28,1.75,1.28,3.61,1.69,4.98,1.72.35.01.63.15.92.39.07.06.14.12.21.2.08.06.16.14.22.22.15.16.31.34.48.53.18.19.36.39.56.6,0,0-.01,0,0,.01.61.62,1.41,1.34,2.59,2.02,3.17,1.77,9.21,5.68,10.77,5.93.4.07.65.19.82.37.49.47.45,1.26,1.29,2.13.08.08.17.16.26.24,1.48,1.26,2.58,1.96,3.92,2.29.18.04.32.11.43.21.06.04.11.09.15.15.47.66,0,2.06.4,3.94.1.44.14.88.17,1.3.04.42.07.82.14,1.19.02.13.05.25.09.38.11.36.28.7.56,1,.15.15.32.29.52.42.28.17.61.32,1.02.46.51.16,1.14.3,1.92.39,3.96.47,6.37.94,7.21,1.12,0,.01.01.01.01.02.15.23.27.43.38.6h0c.15.24.25.41.29.52.01.04.02.06.03.08.07.22.18.45.36.75.03.06.07.13.11.2.09.13.18.28.28.44.42.66,1.04,1.6,1.98,3.08,1.86,2.95.27.27,2.07,3.53,1.8,3.27.61,1.87,1.04,4.16.19,1,1.09,2.22,2.18,3.31.47.46.97.89,1.47,1.28.33.25.65.48.96.67.62.38,1.18.64,1.57.68.59.07.86.1,1.08.14.36.06.57.17,1.8.58.61.2.92.33,1.08.46.03.01.06.04.07.07.03.02.04.05.06.07.02.02.03.05.03.08.07.2.03.47.54,1.05.13.15.23.26.31.36.18.2.26.32.3.42.11.25-.04.39.15,1.36.12.68.21.94.38,1.11.06.06.14.12.24.2.1.07.23.15.37.28.11.08.22.18.34.31.06.06.13.13.2.21.09.1.16.19.23.26.14.17.22.29.25.38.03.04.04.07.04.1v.02c.03.27-.49.15-.82.32-.13.07-.21.09-.3.09-.02,0-.03-.01-.05-.01s-.03-.01-.05-.01c-.03-.01-.05-.03-.08-.04-.03-.02-.07-.04-.12-.07-.05-.03-.12-.07-.19-.12-.1-.06-.22-.13-.36-.21-.25-.14-.59-.32-1.04-.53-.49-.22-.82-.34-1.05-.38-.71-.14-.71.32-1.99.37-1.71.08-.91.3-1.79.95-.87.66-.22,1.74-.36,2.98-.15,1.23.01,5.77.38,6.91.39,1.15-.1,1.21.48,2.46.13.29.24.44.34.5.03.03.06.04.09.04.33.08.74-.52,2.05-.32.74.1.95.14,1.07.22.02.01.04.02.05.03.15.1.19.29,1.29.85.59.3.89.47,1.04.6.03.02.05.04.07.07.19.22-.08.32.57,1.01,1.03,1.09.43.82,1.03,2.34.6,1.53.54,1.53,1.47,2.84.29.41.45.6.6.73.04.03.08.06.12.09.05.04.1.07.16.11.07.04.16.09.27.15.09.06.19.12.32.21.01,0,.02,0,.02,0,.27.18.63.45,1.13.88.09.07.17.14.25.21.01,0,.02.01.02.01.22.2.37.36.49.5h0s.01.01.01.01c.04.05.08.1.1.14.52.77-.58.71-.55,1.87Z"/>
      <path id="krajina-west" class="cls-1" d="M151.86,15.31c-.27.93-.55,1.94-.85,3.05-2.07,7.72-2.26,6.59-3.58,13.56-1.31,6.96-5.08.75-9.97,6.21-4.9,5.46-8.28,3.76-13.56.19-5.27-3.58-6.58-.38-9.03,6.09-2.45,6.46-4.14,8.4-9.41,7.84-5.27-.57-3.58,3.57-1.13,5.74,2.45,2.17,3.2,2.92,2.07,9.2-1.13,6.28-1.51,6.14,0,11.03,1.5,4.9,2.26,2.07,3.95,10.36,1.7,8.28,8.66,1.5,12.61-1.89,3.96-3.38,6.4,1.13,6.03,4.71-.38,3.58-.57,3.95,5.46,3.76,6.02-.18,2.44,1.89,1.31,6.73-.18.78-.18,1.43-.04,1.96-.25-.04-.47-.08-.66-.13-2.56-.65-.88-2.17-5.76-1.76-4.86.41-3.55,3.44-3.27,13.18.3,9.76,5.83,15.72,7.92,18.68,2.1,2.97,2.7,4.89,2.9,6.78.19,1.89-2.12,9.75-2.12,9.75,0,0-.12-.02-.32-.06,0-.01-.01-.01-.01-.02-.84-.18-3.25-.65-7.21-1.12-.59-.07-1.09-.16-1.51-.27-.15-.04-.28-.08-.41-.12-.41-.14-.74-.29-1.02-.46-.11-.07-.2-.13-.29-.2-.08-.08-.16-.15-.23-.22-.21-.23-.36-.47-.47-.73-.03-.09-.06-.18-.09-.27-.04-.13-.07-.25-.09-.38-.07-.37-.1-.77-.14-1.19-.03-.42-.07-.86-.17-1.3-.4-1.88.07-3.28-.4-3.94-.04-.06-.09-.11-.15-.15-.11-.1-.25-.17-.43-.21-1.34-.33-2.44-1.03-3.92-2.29-.09-.08-.18-.16-.26-.24-.84-.87-.8-1.66-1.29-2.13-.17-.18-.42-.3-.82-.37-1.56-.25-7.6-4.16-10.77-5.93-1.03-.6-1.77-1.22-2.35-1.78-.08-.08-.16-.16-.24-.24h0c-.2-.22-.38-.42-.56-.61-.17-.19-.33-.37-.48-.53-.06-.08-.14-.16-.22-.22-.07-.08-.14-.14-.21-.2s-.14-.11-.22-.16c-.21-.14-.44-.22-.7-.23-1.37-.03-3.23-.44-4.98-1.72-.11-.08-.22-.18-.32-.28-.08-.08-.16-.16-.23-.25-.07-.09-.15-.19-.22-.29-.14-.2-.28-.41-.42-.64-.06-.12-.13-.24-.2-.36-.06-.12-.13-.24-.19-.37-.12-.25-.24-.5-.35-.76h0c-.12-.27-.22-.52-.32-.77-.04-.09-.07-.17-.1-.26-.1-.25-.19-.48-.27-.7-.31-.83-.54-1.47-.67-1.62h0s-.06-.06-.09-.07c-.04-.02-.08-.04-.13-.06-.59-.2-1.98.13-3.57-.48-1.86-.68-8.01-6.52-13.46-10.72-1.39-1.07-2.41-1.95-3.14-2.69-2.17-2.22-1.96-3.39-1.67-5.26.39-2.51,11.9,1.74,18.82,4.03,6.93,2.29,10.26,1.86,12.55-2.29,2.29-4.15,1.2-22.47.6-23.36-.6-.89-2.26.16-2.26.16,0,0-.24-.25-.52-1.41-.27-1.17.38-4.96-.44-9.21-.81-4.25-7.54-10.59-11.58-12.25-4.03-1.66-21.25-3.27-27.06-3.62-5.8-.36-8.04-1.29-8.81-1.88-.77-.6-2.55-3.18-2.77-5.25-.22-2.07,1.3-3.55,3.77-4.33,2.47-.78,4.06-1.85,4.39-3.01.25-.87-.4-1.73-.74-2.09.35-1.3.77-2.84.98-3.58.36-.7,2-3.66,2.2-4.35.22-.92.03-2.1-.03-2.99.24-.56.88-1.47,1.47-1.71.77-.23,2.73-.8,3.26-1.42,1.03-1.2,3.38-6.79,4.07-8.31l4.14-2.84,5.1.17c1.25.2,19.02,6.36,19.75,4.95l1.1-.98c.12-.49.13-1.49.06-2l.51-1.49c.61-.85,1.92-1.25,2.72-1.89l.49-1.39c1.1-.59,2.08-1.97,2.61-3.1l2.4-2.04.73.72c.33,1.23,1.04,3.39.79,4.67l.51.71,1.81-.21c-.1-.44-.4-1.3-.59-1.71l1.3.48c.4.57,1.34,1.68,1.99,1.97l.85-1.6c.5,1.08.56,2.42,0,3.49.6-.55,1.87-1.19,2.46-1.77l1.71,3.76c2.84,2.64,8.03,4.87,11.54,6.45.54-.74,4.31-.73,5.13-.83.27-.26,1.83-3.85,2.05-4.27,1.02.69,3.89,2.66,5.06,2.95,1.33.78,3.59,2.56,4.91,3.28,1.07.05,3.53-.77,4.55-1.13.25-.49.35-1.29.81-1.68.02.01.03.02.05.03Z"/>
      <path id="banja-luka" class="cls-1" d="M182.07,46.98c-1.32,2.82-1.88,6.58-2.07,11.01-.19,4.43-5.27,6.87-6.78,8-1.5,1.13-2.82,1.32-9.03,2.79-6.22,1.48,3.95,2.85,4.51,4.93.57,2.07-2.25,4.51-3.38,10.35-1.13,5.83.37,1.88,3.42,5.08,3.05,3.2.91,3.95.15,7.34-.75,3.39,1.32,5.27,6.97,9.98,2.72,2.27,2.51,4.45,1.56,6.09-.14.08-.22.12-.22.12-3.75.28-7.67,1.24-14.58,1.31-5.12.05-6.05-.09-6.94-1.25-.07-.09-.14-.18-.21-.28-.25-.36-.52-.8-.89-1.33-1.86-2.63-4.77-6.52-6.36-6.74-1.49-.2-9.34-.03-12.5-.53-.14-.53-.14-1.18.04-1.96,1.13-4.84,4.71-6.91-1.31-6.73-6.03.19-5.84-.18-5.46-3.76.37-3.58-2.07-8.09-6.03-4.71-3.95,3.39-10.91,10.17-12.61,1.89-1.69-8.29-2.45-5.46-3.95-10.36-1.51-4.89-1.13-4.75,0-11.03,1.13-6.28.38-7.03-2.07-9.2-2.45-2.17-4.14-6.31,1.13-5.74,5.27.56,6.96-1.38,9.41-7.84,2.45-6.47,3.76-9.67,9.03-6.09,5.28,3.57,8.66,5.27,13.56-.19,4.89-5.46,8.66.75,9.97-6.21,1.32-6.97,1.51-5.84,3.58-13.56.3-1.11.58-2.12.85-3.05.68.34,1.25,1.19,1.25,1.97-.09.43-.62,1.15-.91,1.47,1.35.87,3.07-.25,4.26-.92-.21.63-.8,2.83-1.23,3.37.48-.28,4.62-.71,5.05-.79.63.08,2.26.28,2.88.08,2.35-1.03,4.47-4.79,6.95-5.6,4.38-.52,7.74,3.57,10.03,6.76v-.02c.96,1.13,2.13,3.04,3.54,4.34-.09.21-.18.42-.29.62-1.32,2.38-3.2,1.94-5.2,7.02-2,5.08,1.81,2.45,5.76,8.1,3.95,5.64-.56,2.44-1.88,5.27Z"/>
      <path id="doboj" class="cls-1" d="M268.38,48.8l-1.86,5.6c-.04-.15-.06-.28-.07-.4-.23-1.63-6.2-3.15-10.79-3.15s-6.99,2.61-11.44.11c-.71-.4-1.02-.79-1.09-1.15-.02-.13-.02-.25.01-.36.03-.11.07-.22.13-.33.17-.35.51-.68.84-.99.05-.05.1-.09.14-.13.21-.2.41-.39.56-.57.06-.07.11-.13.15-.2.05-.07.09-.14.11-.21.02-.05.03-.11.03-.16,0-.13-.07-.26-.22-.38-.08-.07-.18-.13-.3-.18-.25-.12-.61-.23-1.09-.33-.24-.05-.51-.1-.81-.15-.61-.09-1.35-.18-2.26-.26-10.54-.92-9.7,3.81-11.18,8.44-1.47,4.65-3.42,5.21-6.77,6.59s-12.71-1.59-14.86,2.62c-2.14,4.22,3.96,7.57,10.87,10.26,6.91,2.69,15.35,6.04,16.55,10.12,1.2,4.09-2.29,4.28-8.61,4.57-.19.01-.36.01-.54.02h0c-6.15.22-12.27-.68-13.2-1.12h-.01c-.94-.45-1.65-2.55-2.68-5.01-.09-.21-.2-.47-.34-.76,0-.03-.01-.05-.03-.08-.12-.27-.26-.57-.42-.89-.02-.06-.05-.13-.09-.19-.23-.48-.49-1-.77-1.55-.1-.2-.21-.41-.32-.63-.57-1.08-1.2-2.23-1.85-3.31-.09-.15-.18-.3-.27-.45-.15-.24-.3-.48-.45-.71-.12-.2-.25-.39-.38-.58-.25-.37-.49-.71-.74-1.03-.1-.14-.21-.28-.32-.41-.12-.15-.25-.3-.38-.43-.04-.05-.08-.09-.12-.13-.32-.33-.61-.57-.87-.69-.15-.07-.32-.15-.51-.24-.12-.05-.24-.1-.37-.16-.03,0-.06-.02-.09-.03-.19-.08-.39-.16-.6-.24-.27-.1-.55-.19-.86-.28-.15-.05-.31-.09-.47-.13-.16-.04-.32-.08-.49-.12-.17-.03-.34-.06-.51-.09-.34-.06-.7-.1-1.07-.12-.16-.01-.32-.02-.49-.02-.14,0-.28,0-.43.01-.12,0-.24.01-.36.02-.12.01-.24.02-.36.04-.48.05-.98.16-1.49.32-.25.07-.5.16-.75.28-.12.04-.24.1-.37.17-.12.05-.24.12-.37.19-.25.13-.5.29-.75.47-.12.08-.25.17-.37.27-.24.18-.49.39-.73.62-.16.14-.32.3-.48.48-.48.5-.94,1.09-1.39,1.78-4.65,7.1-.44,13.89-.44,13.89h.01c.52.46,1,.91,1.43,1.35.19.19.37.38.54.57.18.19.34.37.49.55.15.19.3.37.44.55.67.85,1.16,1.65,1.51,2.41.16.36.3.72.41,1.06.07.22.13.45.19.67.05.22.09.43.12.65.33,2.23-.33,4.1-.62,5.87-.04.24-.15.5-.32.78-.06.09-.12.19-.18.28h0c-.08.1-.15.2-.23.29-.32.41-.75.84-1.26,1.28-.11.09-.21.19-.33.29-.23.19-.47.39-.72.6-1.63,1.29-3.71,2.67-5.74,3.91-.28.18-.57.36-.86.53-.71.43-1.4.84-2.06,1.22-.26.15-.51.29-.75.43-1.13.64-2.09,1.17-2.76,1.53h0c-.08.04-.15.08-.22.12-.21.11-.38.21-.5.27-.02.01-.03.02-.04.02.95-1.64,1.16-3.82-1.56-6.09-5.65-4.71-7.72-6.59-6.97-9.98.76-3.39,2.9-4.14-.15-7.34-3.05-3.2-4.55.75-3.42-5.08,1.13-5.84,3.95-8.28,3.38-10.35-.56-2.08-10.73-3.45-4.51-4.93,6.21-1.47,7.53-1.66,9.03-2.79,1.51-1.13,6.59-3.57,6.78-8,.19-4.43.75-8.19,2.07-11.01,1.32-2.83,5.83.37,1.88-5.27-3.95-5.65-7.76-3.02-5.76-8.1,2-5.08,3.88-4.64,5.2-7.02.11-.2.2-.41.29-.62,1.03.95,2.19,1.59,3.49,1.36,1.18-.61,3.68-1.42,5.01-1.54,2.75-1.2,6.08-7.8,8.86-8.91,3.43-.53,6.42,5.36,9.58,6.06.66.17,1.37.3,2.1.33.26,1.14.66,2.43,1.23,3.16,1.19,1.55.69,2.38,1.98,2.75,1.29.38,2.13-.27,3.24,1.53,1.1,1.8.18,2.78,2.85,4.47,2.67,1.7,4.26,2.48,5.84,2,.2-.05.41-.11.62-.17.41-.1.84-.21,1.23-.35.2-.07.39-.15.57-.25.72-.38,1.23-1.01,1.23-2.21,0-2.41.76-2.24,2.73-2.9,1.35-.45,2.92-.83,3.94-1.28.18-.08.35-.16.49-.25s.26-.18.35-.28c.05-.04.09-.09.12-.14.51-.77.58-2.95.94-3.72.09-.21.24-.45.41-.71.47.6,1.43,1.48,2.2,1.96-.16,1.86-.08,4.93,1.71,7.06,2.72,3.24,4.17,6.31,8.39,6.89,4.22.58,4.36-1.81,6.76,1.03,2.41,2.83,4.62,2.89,4.71,3.7.07.61-.73,1.59-.54,2.22.02.07.04.13.09.19.04.04.08.08.13.12.02.02.05.04.08.05.07.04.15.08.24.11,1.12.38,2.99.02,4.12.55Z"/>
      <path id="brcko" class="cls-1" d="M286.58,55.11c-.07.36-.16.56-.28.67t-.01,0s-.06.05-.1.07c-.32.13-.79-.08-1.52.24-.15.07-.27.13-.37.17-.1.05-.17.1-.23.15h0c-.28.2-.29.35-.56.63-.03.02-.06.05-.1.1-.08.07-.17.14-.29.23-.06.05-.12.09-.18.12-.15.11-.28.2-.38.28-.11.08-.19.15-.26.21-.03.02-.05.04-.07.07-.18.17-.27.38-.45.85-.34.92-.35,1.02-.75,2.98-.18.85-.31,1.1-.48,1.15-.22.05-.48-.21-.93.04-.8.48-.37.19-1.93,1.06s-1.41-.03-2.57-.08c-.31-.01-.54.03-.71.09-.12.03-.22.09-.3.15-.11.08-.19.17-.28.28-.07.06-.13.14-.21.22h-.01s-.11.09-.17.14c-.07.05-.14.1-.22.14-.15.09-.3.18-.44.29h-.01c-.15.1-.3.21-.43.34-.22.19-.41.41-.55.69-.1.22-.25.5-.41.8v-.08c-1.34.04-2.15-.15-2.64-.77-.11-.15-.21-.31-.29-.51-.06-.15-.12-.31-.17-.49-.07-.25-.13-.54-.18-.87-.01-.11-.03-.23-.04-.35s-.03-.24-.04-.37c-.02-.13-.03-.26-.04-.4-.03-.36-.07-.74-.11-1.13-.02-.2-.05-.4-.08-.6-.05-.41-.11-.82-.18-1.24-.06-.41-.14-.83-.21-1.25-.08-.47-.17-.93-.25-1.38-.07-.35-.13-.69-.19-1.01,0,0-.01-.03-.01-.04-.05-.26-.1-.52-.15-.76-.11-.6-.2-1.13-.27-1.54l1.87-5.6c.21.1.39.22.54.4.95,1.09,0,2.71.23,4.3.21,1.61.02,2.53,2.19,1.19,1.4-.86,1.71-.13,2.06-.42.03-.03.06-.07.1-.12.17-.23.37-.75.73-1.82.17-.51.33-1.01.5-1.5h0c2.67,2.42,7.92,1.77,11.15,1.65.17,0,.41,0,.69,0v.42c.04,1.3.27.9,0,2.21Z"/>
      <path id="herzegovina-neretva-canton" class="cls-1" d="M235.07,227.03s0,.01-.03.02c-.02,0-.04.02-.07.03-.05.01-.12.03-.22.04-.14.02-.32.04-.54.06-.1,0-.2.01-.3.02-.07,0-.13.01-.2.01-.09,0-.19.01-.29.01-.21.01-.42.01-.66.02-.44.02-.93.02-1.48.03-3.68.04-9.63-.06-16.04-.28-.67-.02-1.31-.06-1.91-.09-.3-.02-.6-.04-.89-.07-.58-.04-1.14-.09-1.66-.14-.8-.08-1.53-.16-2.2-.24-.43-.06-.84-.11-1.23-.15-.09-.01-.19-.02-.28-.03-.26-.04-.5-.07-.74-.09-.24-.03-.47-.05-.69-.07-.2-.02-.4-.03-.58-.04-.4-.03-.75-.03-1.05,0-.08.01-.15.02-.22.03-.11.01-.2.03-.3.06-.09.02-.17.05-.25.09h-.01c-.08.03-.15.07-.22.12-.06.04-.13.09-.18.15-.03.03-.05.05-.07.09-.03.03-.05.06-.07.1,0,0-.02.01-.02.02-.04.07-.08.16-.11.25-.02.04-.03.09-.04.15-.03.09-.04.2-.05.31-.03.23-.03.5,0,.8.03.3.07.63.15,1.02.04.2.08.4.13.62h0c1.32,6.01,3.49,4.58,2.63,10.04-.88,5.46.76,6.66.21,10.81-.28,2.13-.06,2.94-.13,3.57-.01.07-.02.13-.03.2-.02.07-.04.15-.08.23-.01.03-.03.07-.05.11-.06.13-.15.28-.27.43-.08.1-.17.21-.28.33-.16.19-.37.41-.63.67-.08.08-.16.16-.25.25-.1.1-.21.2-.31.28-.1.09-.2.18-.29.26-.05.05-.1.09-.15.12-.05.04-.1.08-.15.12-.09.07-.19.14-.28.21-.25.18-.49.33-.72.47-.33.21-.64.38-.92.54-.09.05-.17.11-.25.16-.08.05-.15.1-.22.16-.08.05-.15.11-.22.17-.12.12-.22.25-.3.39-.08.15-.14.32-.16.52-.01.08-.02.17-.02.27,0,.12,0,.26.03.4s.04.28.08.45c.58,2.67-.14,3.16,2.46,3.62,2.6.47,3.71,1.06,3.33,3.85-.39,2.78-2.41,8-3.6,10.84-1.2,2.84-.21,5.9,1.69,11.45,1.91,5.55.45,7.64,6.56,10.59,6.1,2.94,3.3,2.43,8.14,7.65.49.53.93.99,1.32,1.4l.29.29c.18.19.36.36.52.52.09.08.17.16.24.24.05.05.1.09.14.13.28.27.53.5.75.69.04.04.08.08.12.11.06.06.12.11.17.15.8.69,1.29,1.02,1.9,1.56.07.07.14.13.21.2.09.09.18.17.28.27.02.01.03.03.04.04.02.01.04.03.05.05l.09.09c.07.06.13.13.2.2.14.14.28.3.43.47.15.17.31.36.49.56,2.83,3.28,3.5,5.46,6.01,6.11,1.58.41,1.73,5.3,1.62,8.83l-.14-.09c-.52-.76-1.93-3.05-2.8-3.44-3.08.6-7.45-1.6-10.05-3.07-3.4-2.3-16.87-11.42-20.11-13.42-3.83-2.79-5.82-7.9-11.06-8.55-1-.15-3.17-4.2-3.72-4.94-.47-2.27.63-4.99-1.34-6.81l-.8.04c-.31.31-1,.81-1.41.97-3-.16-6.4-3.08-9.43-1.69-.72.63-1.83,2.14-2.3,2.96-.03-.05-8.47-5.22-8.51-5.26,1.72-.23,3.76,1.26,5.4,1.56-.64-.83-2.34-1.98-3.27-2.44l4.74-.99,2.47-1.85-.3-3.31h-.01v-.04h-.01l-2.68-6.37-2.67-3.17h0c.03-.07-.11-.25-.37-.49.98-.95,1.88-1.83,2.42-2.32,1.6-1.45,1.17-2.39,1.6-3.64.44-1.23,1.75-3.85,1.75-3.85,0,0,.29-1.01.42-3.47.07-1.34-.02-1.46-.15-1.48-.01-.01-.03-.01-.04-.01-.02,0-.04,0-.06-.01-.08-.02-.17-.11-.24-.49-.22-1.16-.55-1.09-1.39-2.05-.83-.94-1.89-1.73-3.64-2.89-1.74-1.16-.58-1.16-1.89-5.6-.46-1.56-.43-2.16-.15-2.29.02-.01.04-.02.06-.02.08,0,.17,0,.28.03.04.01.08.03.12.04.17.06.36.16.55.28.15.08.3.17.45.25.25.13.49.24.7.27.12.03.23.03.33-.01.06-.02.11-.04.17-.06.27-.07.56-.08.88-.04.53.05,1.11.2,1.77.32.09.01.18.03.28.04.15.03.29.05.44.06.13.02.27.03.41.03.03.01.06.01.09.01,1.75.07,2.48.51,6.26,1.38,1.4.33,2.04.42,2.3.37.5-.07-.13-.58.2-1.1.51-.8-.07-1.53-.52-2.91-.43-1.38-1.89-3.63-2.9-5.44-1.02-1.82-.44-6.7-1.25-7.22-.39-.26-.75-.45-1.19-.65-.11-.05-.23-.1-.36-.16-.35-.15-.75-.31-1.25-.5-1.34-.51-1.26-.93-2.95-2.62s-1.15-1.38-2.03-2.76c-.86-1.38-.5-1.01-1.23-2.1-.73-1.1-1.96-1.6-3.05-2.55-.28-.24-.5-.35-.69-.41-.09-.04-.17-.06-.26-.07h-.02c-.13-.03-.27-.06-.44-.12-.4-.14-.96-.45-1.94-1.37-1.02-.95-1-1.25-.54-1.37.48-.11,1.4-.05,2.17-.28.17-.04.32-.1.47-.18.25-.14.45-.23.62-.29.86-.31,1.08.13,4.14-.36.43-.07.76-.13,1.02-.19.1-.02.18-.04.25-.06.05-.01.09-.02.13-.03,1.24-.35-.92-.5-.98-1.45-.08-1.17-.15-.8-.4-2.6-.25-1.8-.33-1.92-.55-3.36-.23-1.46-.85-2.12-1.02-3.35-.09-.63-.41-.84-.96-.91-.53-.08-1.29-.03-2.26-.11-.4-.03-.83-.04-1.26-.03-.03-.04-.07-.07-.12-.12-.02-.03-.06-.08-.11-.12-.04-.04-.08-.08-.13-.13s-.11-.1-.17-.15c-.07-.07-.14-.13-.22-.2-.26-.22-.48-.39-.67-.54-.38-.29-.64-.45-.83-.57-.09-.06-.17-.1-.24-.14-.12-.07-.21-.13-.31-.21-.14-.14-.3-.34-.57-.72-.94-1.31-.88-1.31-1.47-2.83-.61-1.53,0-1.26-1.04-2.35-.57-.61-.43-.76-.53-.94,0,0,.01-.01,0-.01,0-.03-.03-.05-.06-.07-.02-.03-.04-.05-.07-.07-.15-.13-.45-.3-1.04-.6-.2-.1-.37-.19-.51-.28-.14-.08-.25-.15-.34-.21-.06-.03-.11-.07-.15-.11-.04-.03-.08-.06-.11-.09-.03-.03-.06-.05-.08-.07-.02-.02-.04-.04-.05-.05-.03-.03-.06-.06-.1-.07-.02-.02-.05-.02-.07-.03-.15-.05-.4-.09-.98-.18-1.34-.2-1.73.43-2.07.31-.03,0-.06-.01-.09-.04-.1-.08-.2-.23-.32-.49-.58-1.25-.09-1.31-.47-2.46-.38-1.14-.54-5.67-.39-6.91.15-1.24-.5-2.32.36-2.98.88-.65.08-.87,1.79-.95.2-.01.36-.03.51-.06.72-.11.86-.38,1.34-.33.25.02.6.13,1.17.39,1.36.63,1.65.96,1.89.99.09.02.18-.01.32-.08.34-.17.87-.04.82-.32h0c.2.06.39.13.59.19.37.12.75.23,1.13.32.02.01.05.01.07.02.13.03.25.06.37.08.12.04.24.06.36.08.16.04.32.07.48.1.3.06.61.11.91.15.3.05.59.09.89.12.6.07,1.18.11,1.75.15.57.03,1.12.05,1.65.06.86.02,1.66.01,2.36,0,.61-.01,1.15-.02,1.6,0,.25,0,.48.01.67.03h.12s.03,0,.04,0c.07.01.13.02.19.03.06,0,.11.02.16.03.08.03.14.03.18.01.61-.11-1.22-2.77-.79-3.29.02-.02.05-.04.09-.06.07-.02.16-.02.28,0,.03,0,.05.01.08.02.04,0,.08.02.12.04.07.03.15.06.23.1.07.03.14.06.21.1.22.1.48.26.79.47.41.25.91.6,1.5,1.04,1,.75,1.79,1.42,2.41,2.02,0,.01.02.02.03.02,1.18,1.11,1.81,1.95,2.31,2.5.02.03.05.06.08.09.05.05.1.1.15.15.07.07.14.13.21.19.07.05.15.1.22.15.04.02.07.04.11.06.07.03.14.06.21.08.05.01.1.02.15.03.04.01.08.01.13.01.35.03.8-.05,1.42-.25.1-.03.21-.07.32-.11.08-.03.17-.06.26-.09.22-.08.46-.17.72-.28.26-.09.54-.21.85-.33.27-.11.53-.22.8-.33.26-.11.53-.22.79-.33.8-.33,1.59-.67,2.36-.99.26-.11.52-.22.77-.32.26-.11.5-.21.75-.31.24-.1.49-.2.73-.29.24-.1.48-.19.71-.27.23-.09.46-.17.68-.25.22-.08.44-.15.66-.22.21-.07.42-.13.62-.19s.4-.11.59-.15c.19-.05.38-.08.56-.11.13-.03.26-.05.38-.06h.01c.08-.01.16-.02.23-.02.12-.02.22-.02.33-.02h.03c.17,0,.32.01.47.04.08.01.15.02.22.04.07.01.14.03.2.06.1.04.2.09.29.15.28.17.48.44.58.82.54,2-2.26,3.43-1.9,4.55,0,.04.02.07.04.11.02.03.04.07.07.1.05.1.16.19.3.29.05.04.1.07.15.1.11.06.23.12.37.18.07.03.15.06.23.09.08.03.16.06.25.09.35.13.78.24,1.29.35h.02c.18.04.36.08.52.11.17.04.33.07.48.1.11.03.22.05.32.07.03.01.07.02.1.02.22.04.41.08.59.12.04.01.08.02.12.02.21.04.4.07.56.1.17.02.31.04.43.06.02.01.04.01.05.01.11.01.21.03.29.03.05.01.09.01.13.01.04,0,.08,0,.12,0,.12.01.22.01.32.01.16.01.32.01.55.03.06,0,.13.01.2.02.05.01.1.01.16.02.05.01.11.02.16.02.06.01.13.02.19.03.09.02.18.03.28.05.16.03.35.06.56.1.21.04.44.08.7.14.27.05.58.12.93.19,0,0,.01,0,.01,0h.02c-.03.82.36,1.32.78,3.02.13.52.23.97.3,1.37,0,.03,0,.06.02.08.06.31.11.6.15.88.01.1.03.19.05.28.03.18.06.36.09.54.05.27.1.55.17.84.05.2.1.4.16.62.03.11.06.22.1.34.3,1.01.24,1.6.39,2.12,0,.02,0,.04.02.05.07.18.16.35.3.53.05.06.1.12.17.18l.19.19c.15.13.33.27.55.42.87.6,1.58.88,2.3,1.02.18.03.36.06.54.08h.01c.19.02.38.04.57.05.4.02.83.03,1.31.06,1.92.1,2.25-.78,4.33.98.13.11.26.22.38.31.19.16.38.3.54.44.45.35.81.62,1.1.87.15.13.29.25.41.38s.23.26.33.4c.05.07.1.14.15.22.15.23.28.5.4.83.61,1.57-.33,2.19.19,3.2.3.58-.18.86,0,1.15.01.04.04.07.08.1.04.04.1.08.17.11.09.05.22.11.37.17.32.12.78.26,1.44.43.54.14.96.27,1.29.4.06.02.12.04.17.06.07.03.14.05.2.08.1.05.2.1.29.15.13.07.24.14.34.21.05.04.09.07.13.1.04.03.08.07.11.1.02.02.04.04.06.06.04.04.08.08.12.13.08.08.14.16.21.23.03.04.07.08.11.12.08.07.17.14.29.21.11.07.26.13.44.2.12.04.24.09.36.14.24.1.49.21.73.32.13.06.26.11.39.16.57.23,1.13.42,1.59.36h.03s.1-.02.14-.03c.07-.02.14-.05.2-.08.1-.06.2-.13.29-.23.14-.14.26-.36.34-.64.39-1.29-.55-2.64-.44-3.31.01-.03.02-.07.03-.1.01-.04.03-.06.05-.09.02-.03.05-.06.08-.08.18-.14.51-.18,1.07-.11.33.04.6.11.84.19.09.03.17.06.25.1.08.04.15.07.22.11.71.38.98.96,1.43,1.4.06.06.12.12.19.17.13.1.28.2.46.28.18.07.39.13.65.16.53.07,1.31.26,2.16.5h.01c-.57,1.08-1.4,3.04-1.27,5.45.02.36.06.72.12,1.08.04.19.08.37.12.56,1.04,4.48,1.05,10.42,1.58,10.88h.01s.01.01.01.03h0Z"/>
      <path id="west-herzegovina-canton" class="cls-1" d="M176.48,245.03c-3.78-.87-4.51-1.31-6.26-1.38-1.74-.07-3.09-.76-4.07-.37-.99.4-3.65-2.99-2.34,1.46,1.31,4.43.15,4.43,1.89,5.6,1.74,1.16,2.8,1.95,3.64,2.9.84.96,1.17.89,1.39,2.05.22,1.16.62-.48.49,1.98-.12,2.46-.42,3.48-.42,3.48,0,0-1.31,2.62-1.74,3.85-.43,1.24,0,2.19-1.61,3.64-.54.49-1.44,1.37-2.42,2.32-2.09-1.87-12.1-8.2-12.56-8.59-2.84-1.58-3.17-5.54-4.44-8.18-.51-.6-2.03-1.6-2.7-1.99l-3.58-3.35-3.41-5.2-1.97-6.03,1.65-10.15-1.4-3.13-2.71-1.85-8.5-1.32c-1.55-.86-5.98-3.23-7.04-4.63h-.02c-.26-.24-.54-.49-.83-.8.5.23.81.46.81.46,0,0,3.25-.56,4.12-.85.88-.29,1.58-.83,2.62-.99,1.04-.17,1.69-.39,2.94-.55,1.25-.17,2.29-.23,2.95-.6.65-.39.59-.98,1.53-1.15.92-.16-.71-1.47.92-.16,1.64,1.31.49.82,1.91,1.69,1.41.88,1.25,1.15,2.39,1.31,1.15.17.44.6,1.76.06,1.3-.55,1.56-.65,2.47-1,.9-.36,1.39-.47,2.32-.96.92-.49-.08-.22,2.06-1.04,2.13-.82,1.91-.82,3.61-1.2,1.69-.39,1.04-.23,2.72-.66,1.7-.43.98.6,3.05-.98,2.07-1.58,1.09.16,2.4-1.96,1.31-2.13,1.2-2.4,1.14-3.88-.03-1.23,1.2-1.09.43-2.02.44-.01.88,0,1.29.03,1.94.16,3.02-.22,3.19,1.01.17,1.23.8,1.89,1.03,3.35.22,1.45.3,1.56.55,3.36.25,1.8.32,1.44.4,2.6.07,1.16,3.28,1.13-.4,1.73-3.68.59-3.25-.17-4.77.65-1.53.82-4.37-.27-2.11,1.83,2.26,2.11,2.26,1.03,3.35,1.97,1.09.95,2.33,1.45,3.05,2.54.73,1.09.37.73,1.23,2.11.88,1.38.34,1.07,2.03,2.76,1.69,1.69,1.61,2.11,2.95,2.62,1.36.51,2.01.8,2.8,1.31.81.51.23,5.4,1.24,7.21,1.01,1.81,2.47,4.07,2.91,5.45.44,1.38,1.03,2.11.51,2.9-.51.81,1.31,1.61-2.47.73Z"/>
      <path id="central-bosnia-canton" class="cls-1" d="M215.23,172.19c-.27.76.14,1.48-.12,2.54-.05.2-.08.35-.08.48-.01.13-.02.23-.03.32,0,.06,0,.13-.02.19,0,.03-.01.07-.02.1-.03.09-.07.19-.13.31-.1.2-.26.47-.53.86-.09.13-.17.24-.24.35-.07.1-.14.19-.19.27h0c-.16.22-.26.36-.35.46-.14.16-.26.23-.5.38-.07.05-.16.1-.27.17-.05.03-.11.07-.17.11-.25.16-.52.3-.82.41-.15.06-.31.12-.47.17-.31.11-.66.22-1.01.35-.18.06-.37.13-.56.22-.09.04-.19.08-.28.12-.1.04-.2.08-.3.14-.1.04-.2.09-.3.16-.11.05-.21.11-.32.17-.15.09-.28.17-.39.24-.06.04-.12.07-.16.09-.09.05-.18.1-.24.14-.36.19-.41.19-.73.37-.06.03-.14.07-.23.13h-.01c-.08.06-.18.12-.3.19-.13.07-.27.16-.44.27-1.1.69-1.51,1.06-1.88,1.33-.11.09-.21.16-.33.24-.12.08-.24.15-.4.22-.24.1-.45.11-.63.09-.21-.02-.38-.07-.53-.02-.05.01-.09.03-.13.06-.03.01-.06.03-.08.08-.06.06-.11.15-.16.27-.06.12-.11.26-.16.45-.09.35-.14.62-.15.86h0c-.34-.07-.65-.13-.93-.19-.26-.06-.49-.1-.7-.14-.21-.04-.4-.07-.56-.1-.1-.02-.19-.03-.28-.05-.06-.01-.13-.02-.19-.03-.05,0-.11-.01-.16-.02-.06-.01-.11-.01-.16-.02-.07,0-.14-.02-.2-.02-.23-.02-.39-.02-.55-.03-.1,0-.2,0-.32-.01-.04,0-.08,0-.12,0-.04,0-.08,0-.13-.01-.08,0-.18-.02-.29-.03-.01,0-.03,0-.05-.01-.12-.02-.26-.04-.43-.06-.16-.03-.35-.06-.56-.1-.04,0-.08-.01-.12-.02-.18-.04-.37-.08-.59-.12-.03,0-.07-.01-.1-.02-.1-.02-.21-.04-.32-.07-.15-.03-.31-.06-.48-.1-.16-.03-.34-.07-.52-.11h-.02c-.51-.11-.94-.22-1.29-.35-.09-.03-.17-.06-.25-.09-.08-.03-.16-.06-.23-.09-.14-.06-.26-.12-.37-.18-.05-.03-.1-.06-.15-.1-.14-.1-.25-.19-.3-.29-.03-.03-.05-.07-.07-.1-.61-1.13,2.39-2.6,1.84-4.66-.1-.37-.29-.63-.56-.82-.09-.06-.19-.11-.29-.15-.06-.03-.13-.05-.2-.06-.07-.02-.14-.03-.22-.04-.15-.03-.3-.04-.47-.04h-.03c-.11,0-.21,0-.33.02-.07,0-.15.01-.23.02h-.01c-.12.01-.25.03-.38.06-.18.02-.37.06-.56.11-.19.04-.39.09-.59.15s-.41.12-.62.19c-.22.06-.44.14-.66.22-.22.08-.45.16-.68.25-.23.08-.47.17-.71.27-.24.08-.48.18-.73.29-.25.1-.49.2-.75.31-1.01.41-2.07.86-3.13,1.31-.26.11-.53.22-.79.33-.27.11-.55.22-.82.33-.3.12-.58.23-.83.33-.26.11-.5.2-.72.28-.09.03-.18.06-.26.09-.11.04-.22.08-.32.11-.62.2-1.07.28-1.42.25-.05,0-.09,0-.13-.01-.05-.01-.1-.02-.15-.03-.07-.02-.14-.04-.21-.08-.04-.02-.07-.04-.11-.06-.07-.03-.15-.09-.22-.15-.07-.05-.14-.11-.21-.19-.8-.75-1.78-2.38-5.01-4.78-.58-.43-1.06-.77-1.47-1.04-.31-.19-.56-.35-.79-.47-.07-.04-.14-.07-.21-.1-.08-.04-.16-.07-.23-.1-.04-.02-.08-.03-.12-.04-.03-.01-.05-.02-.08-.02-.12-.02-.21-.02-.28,0-.04.01-.08.03-.09.06-.48.46,1.31,3.07.79,3.29-.04.02-.1.02-.18-.01h-.03s-.09-.02-.13-.03c-.07-.01-.14-.03-.23-.04h-.12c-.19-.02-.42-.03-.67-.03-.45-.01-.99,0-1.6,0-.7.01-1.5.02-2.36,0-.53-.01-1.08-.03-1.65-.06-.57-.04-1.15-.08-1.75-.15-.29-.03-.59-.07-.89-.12-.31-.04-.61-.09-.91-.15-.16-.03-.32-.06-.48-.1-.25-.05-.48-.1-.73-.16-.02-.01-.05-.01-.07-.02-.38-.09-.76-.2-1.13-.32-.2-.05-.39-.12-.59-.19t-.02,0s0-.03-.01-.05c0-.02-.01-.04-.03-.07-.04-.07-.09-.15-.16-.26-.03-.03-.06-.08-.09-.12-.07-.07-.14-.16-.23-.26-.07-.08-.14-.15-.2-.21-.12-.13-.23-.23-.34-.31-.14-.12-.27-.21-.37-.28-.1-.08-.18-.14-.24-.2-.17-.17-.26-.43-.38-1.11-.19-.97-.04-1.11-.15-1.36-.02-.05-.06-.11-.1-.17-.04-.07-.11-.15-.2-.25-.08-.1-.18-.21-.31-.36-.51-.58-.47-.85-.54-1.05,0-.03,0-.06-.03-.08-.02-.02-.03-.05-.06-.07-.01-.03-.04-.06-.07-.07-.02-.02-.04-.03-.07-.05-.07-.05-.17-.1-.3-.15-.14-.05-.29-.11-.49-.18-.07-.02-.14-.04-.22-.07-1.23-.41-1.44-.52-1.8-.59-.03,0-.06-.01-.09-.01-.05-.01-.12-.02-.19-.03-.05,0-.1-.01-.15-.02-.06,0-.12-.01-.18-.02-.03,0-.05,0-.08-.01-.11-.01-.24-.02-.39-.04-.03,0-.08-.02-.11-.03-.12-.02-.24-.06-.37-.1-.13-.05-.27-.11-.42-.19-.13-.06-.26-.13-.4-.21-.09-.05-.18-.1-.27-.16-.31-.19-.63-.42-.96-.67-.5-.38-1-.82-1.47-1.28-1.09-1.09-1.99-2.31-2.18-3.31-.43-2.29.76-.89-1.04-4.16-1.8-3.26-.21-.58-2.07-3.53-.94-1.48-1.56-2.42-1.98-3.08-.1-.16-.19-.31-.28-.44-.04-.07-.08-.14-.11-.2-.18-.3-.29-.53-.36-.75-.01-.02-.02-.04-.03-.08-.04-.08-.1-.2-.19-.35-.03-.05-.07-.1-.1-.16h0c-.11-.18-.24-.39-.39-.61h.01c.2.04.32.06.32.06,0,0,2.31-7.86,2.12-9.75-.2-1.89-.8-3.81-2.9-6.78-2.09-2.96-7.62-8.92-7.92-18.68-.28-9.74-1.59-12.77,3.27-13.18,4.88-.41,3.2,1.11,5.76,1.76.19.05.41.09.66.13,3.16.5,11.01.33,12.5.53,1.59.22,4.5,4.11,6.36,6.74.37.53.64.97.89,1.33.07.1.14.19.21.28.89,1.16,1.82,1.3,6.94,1.25,6.91-.07,10.83-1.03,14.58-1.31,0,0,.08-.04.22-.12.01,0,.02-.01.04-.02.12-.06.29-.16.5-.27.07-.04.14-.08.22-.12.05.14.11.29.16.43.03.07.05.14.07.21.14.41.25.82.34,1.18.03.09.05.18.06.27.03.09.04.17.05.25.08.54.07.97-.09,1.21-.88,1.31.19,1.61,1.46,5.27,1.28,3.69,3.06,4.04,2.92,6.94-.01.18-.02.36-.04.54-.03.35-.07.7-.12,1.05-.34,2.25-1.01,4.4-1.01,7.58,0,.62.06,1.07.19,1.39.01.07.04.13.08.18.05.12.12.21.21.28.03.04.08.08.12.11.04.05.09.07.14.09.05.03.1.05.15.07.1.04.2.07.32.09.02,0,.03,0,.04.01.14.02.28.03.43.05.27.02.56.02.89.03.11.01.23.01.34.01.12,0,.24,0,.37.01s.26.02.39.02c.27.02.56.04.86.08.18.02.36.04.54.07.19.03.38.07.58.11.2.03.4.08.61.13.21.05.42.11.64.18.44.12.91.28,1.4.48.93.37,1.58.69,2,.99.14.09.26.19.35.28.04.04.07.08.11.11.02.01.03.03.04.05.04.06.07.11.1.16.29.58-.29,1.1-.98,1.84t-.01.01c-.48.51-1.01,1.13-1.33,1.95-.16.41-.27.87-.29,1.4-.01.3,0,.56.04.78,0,.16.04.31.08.43.01.06.03.12.06.17.74,1.84,3.88-.65,7.89,1.88.62.39,1.09.7,1.45.95.12.08.23.15.32.22.15.12.28.22.37.31.03.03.06.06.09.09.02.02.05.05.07.07.11.14.13.23.09.32-.01.03-.03.06-.06.08-.07.07-.19.14-.31.22-.06.05-.12.09-.18.16-.05.04-.1.1-.14.16-.04.04-.07.1-.1.16-.14.24-.21.59-.13,1.1.04.25.08.47.12.64,0,.05.02.11.03.16.04.21.08.35.12.46.05.15.1.22.14.26.07.05.13.03.2.1.08.09.18.29.32.88.03.12.06.23.1.33.06.21.14.4.25.56.04.08.09.16.15.23s.11.14.18.21c.05.07.12.13.19.19.07.05.15.11.23.17s.16.12.26.17c.02.01.04.02.06.04.16.1.34.2.54.29.11.06.23.12.35.18s.25.13.39.19c.4.2.86.42,1.38.7.17.1.35.2.53.3.2.11.38.22.54.31.27.16.49.32.66.47.04.04.08.08.11.11.05.05.09.1.13.14.72.87-.18,1.43.82,3.27.08.14.16.28.25.42.15.27.32.53.51.78.07.12.16.24.27.36.37.47.77.89,1.21,1.29.01.01.02.02.04.04.21.19.43.38.66.55.24.19.5.38.76.55.52.37,1.08.71,1.7,1.06-.21.24-.35.42-.4.51-.02.03-.03.04-.03.04,0,0,.17.06.42.17.06.03.13.06.2.09.05.02.1.04.15.07.06.03.13.06.19.09.06.03.13.06.2.1.13.06.27.14.4.21.33.18.65.39.86.6.02.01.03.03.05.05.06.06.11.12.13.18.06.11.09.22.05.32Z"/>
      <path id="sarajevo-canton" class="cls-1" d="M253.81,196.95l-1.59,3.46-.13,2.64c-.08-.07-.13-.11-.13-.11,0,0-1.32-.75-1.9-1.11-.58-.37-1.08-1.1-2.69-2.19-1.59-1.08-2.04-1.01-4.36-2.11-2.33-1.09-2.54-.8-4.65-1.01-2.11-.22-.81.43-1.53,1.95-.73,1.52-.08,1.68-.3,3.21-.21,1.53-.43,3.05-1.1,4.36-.33.64-.43,1.49-.45,2.17-.09.12-.27.41-.5.81-.85-.24-1.63-.43-2.16-.5-.26-.03-.47-.09-.65-.16-.18-.08-.33-.18-.46-.28-.07-.05-.13-.11-.19-.17-.46-.42-.73-1-1.43-1.4-.07-.04-.14-.07-.22-.11-.08-.04-.16-.07-.25-.1-.24-.08-.51-.15-.84-.19-.56-.07-.89-.03-1.07.11-.03.01-.06.04-.08.08-.02.03-.04.05-.05.09-.02.03-.03.06-.03.1-.14.65.82,2.02.43,3.31-.09.28-.2.49-.33.64-.09.1-.19.17-.29.23-.06.03-.13.06-.2.08-.04.01-.09.02-.14.03h-.03c-.46.06-1.02-.12-1.59-.36-.13-.05-.26-.1-.39-.16-.24-.11-.49-.22-.73-.32-.12-.05-.24-.1-.36-.14-.18-.07-.33-.13-.44-.2-.12-.07-.21-.14-.29-.21-.04-.04-.08-.08-.11-.12-.07-.07-.13-.15-.21-.23-.04-.05-.08-.09-.12-.13-.02-.02-.04-.04-.06-.06-.03-.03-.07-.07-.11-.1-.04-.03-.08-.06-.13-.1-.1-.07-.21-.14-.34-.21-.09-.05-.19-.1-.29-.15-.06-.03-.13-.05-.2-.08-.05-.02-.11-.04-.17-.06-.33-.13-.75-.26-1.29-.4-.66-.17-1.12-.31-1.44-.43-.15-.06-.28-.11-.37-.17-.07-.03-.13-.07-.17-.11-.04-.03-.07-.06-.08-.1-.2-.29.29-.56-.02-1.15-.51-1.01.43-1.63-.18-3.2-.12-.33-.25-.6-.39-.83-.05-.08-.1-.15-.15-.22-.1-.14-.21-.27-.33-.4s-.26-.25-.41-.38c-.29-.25-.65-.52-1.1-.87-.16-.14-.35-.28-.54-.44-.12-.09-.25-.2-.38-.31-2.08-1.76-2.41-.88-4.33-.98-.48-.03-.91-.04-1.31-.06-.19-.01-.38-.03-.57-.05h-.01c-.18-.02-.36-.05-.54-.08-.72-.14-1.43-.42-2.3-1.02-.22-.15-.4-.29-.55-.42l-.19-.19c-.07-.06-.12-.12-.17-.18-.15-.18-.24-.35-.3-.53-.01-.01-.02-.03-.02-.05-.17-.52-.11-1.11-.4-2.12-.03-.12-.07-.23-.09-.34-.06-.22-.11-.42-.16-.62-.07-.29-.12-.57-.17-.84-.03-.18-.06-.36-.09-.54-.02-.09-.04-.18-.05-.28-.05-.28-.1-.56-.15-.88-.01-.02-.02-.05-.02-.08-.08-.4-.18-.85-.31-1.37-.42-1.7-.81-2.2-.79-3.02.02-.24.06-.52.15-.87.03-.09.05-.18.07-.25.03-.08.06-.14.08-.2.05-.12.1-.21.16-.27.02-.03.05-.06.08-.08.04-.03.08-.05.13-.06.15-.05.32,0,.53.02.12.01.24.01.38-.01.08-.02.16-.04.25-.08.16-.07.28-.14.4-.22.12-.07.23-.15.33-.24.37-.27.78-.64,1.88-1.33.08-.05.16-.11.24-.15.45-.28.69-.41.85-.5.03-.02.06-.03.09-.05.17-.08.26-.12.53-.26.07-.03.14-.08.24-.14.04-.02.1-.05.16-.09.11-.06.25-.14.41-.24.1-.06.2-.12.3-.17.11-.06.2-.11.3-.16.1-.05.2-.09.3-.14.09-.04.19-.08.28-.12.19-.08.38-.15.56-.22.67-.24,1.29-.41,1.81-.67.18-.07.34-.16.49-.26.06-.04.12-.08.17-.11.11-.07.2-.12.27-.17.15-.09.25-.16.34-.23.03-.02.06-.05.08-.07.03-.03.05-.05.08-.08.05-.06.1-.12.16-.19s.12-.15.19-.26h0c.06-.09.13-.18.19-.28.08-.1.16-.22.25-.35.27-.39.43-.66.52-.86.04-.06.06-.12.08-.17s.04-.1.05-.14c.04-.14.05-.26.06-.4,0-.06,0-.13.01-.21.02-.13.04-.28.09-.48.26-1.06-.15-1.78.12-2.54,0-.03,0-.06,0-.09,0-.08-.02-.15-.07-.23-.02-.06-.07-.12-.13-.18-.01-.02-.03-.04-.05-.05-.1-.11-.24-.21-.38-.31-.08-.05-.16-.11-.24-.15-.08-.05-.16-.1-.24-.14-.13-.08-.27-.15-.4-.21-.07-.04-.14-.07-.2-.1-.07-.04-.13-.07-.19-.09-.21-.1-.39-.18-.52-.23-.1-.04-.18-.07-.22-.09-.02-.01-.03-.01-.03-.01,0,0,.01,0,.03-.04.06-.08.2-.26.42-.51.46-.57,1.27-1.46,2.17-2.11,1.44-1.04.64-1.8.04-2.35-.61-.53.38-2.39,2.63-5.02.24-.29.44-.52.61-.71.01,0,.01-.01.01-.01.09-.1.16-.18.23-.25.17-.19.3-.31.39-.38.03-.03.06-.05.09-.07.04-.03.07-.04.1-.04.06-.03.1-.02.13.01.02.02.05.04.07.06.02.01.03.02.04.04.01.01.03.02.04.04.01.01.03.03.05.05.07.07.15.14.26.21.05.02.1.05.16.07.04.02.09.03.14.04.04.01.1.02.15.03.06.01.12.02.18.02,1.63.08,1.54-.41,3.83-.41s2.62-.22,3.93-.76c.1-.04.2-.09.28-.13.08-.05.16-.09.23-.14s.13-.1.18-.15c.06-.06.11-.11.15-.17.04-.05.08-.1.1-.16.03-.04.05-.08.06-.12.03-.05.05-.11.06-.16.07-.21.1-.44.14-.71.02-.13.03-.27.05-.41.01-.15.03-.3.06-.47.02-.13.04-.26.05-.38.04-.62-.05-1.18.01-2.04,0-.03.01-.07.01-.1.02-.19.05-.39.08-.61.02-.14.05-.28.08-.43.09-.46.22-.99.42-1.61.03-.09.06-.17.09-.25.03-.08.06-.16.08-.23.05-.14.1-.26.15-.37.07-.16.14-.28.21-.38.02-.03.04-.05.06-.08.04-.04.07-.07.1-.1.17-.13.32-.07.46.08.04.05.08.1.13.16.02.03.04.06.06.09.07.09.13.19.19.27.02.03.04.06.06.08.04.05.08.09.12.14.07.06.13.09.2.09.02,0,.04,0,.06,0,.62-.15,1.42,0,2.81-.22,1.39-.21.47-.65,2.53-2.94,2.07-2.29.66-1.09,2.62-1.64,1.97-.54,1.21,0,2.58-.07,1.36-.06.69.29,3.19,1.47.41.19.69.33.87.42.09.05.16.09.21.12.05.03.08.06.1.09,0,0,.02.02.02.03.1.2-.35.39,1.11,2.2,2.31,2.85.65.44,2.62,2.3.35.33.65.6.91.83-.47-.06-.58.08-.69,1.13-.22,2.01-.88,2.34-3.29,3.87-.7.45-1.27.76-1.72,1.02-.17.1-.33.19-.47.28-.14.09-.27.18-.37.27-.12.09-.21.19-.29.29-.03.04-.06.08-.08.13-.04.06-.07.12-.09.18-.02.05-.03.11-.04.17-.04.2-.05.43-.03.71v.24c0,.12-.01.23-.02.35,0,.03,0,.06,0,.09-.02.24-.07.49-.13.75-.05.21-.1.43-.15.65-.06.29-.13.59-.18.88-.05.32-.09.63-.09.94,0,.52.11,1.01.4,1.45,1.04,1.53.76,4.36.64,6.71-.11,2.35.44,3-.7,4.42-.14.17-.25.33-.35.48-.05.08-.1.15-.13.22-.14.23-.25.44-.36.63-.03.06-.07.12-.1.18-.05.09-.11.18-.18.26-.04.04-.08.08-.12.12-.06.06-.13.11-.2.15-.01,0-.01.01-.02.01-.07.04-.15.08-.24.11h-.01c-.1.03-.2.05-.32.07-.12.02-.25.03-.4.03-.07,0-.13-.01-.2-.01s-.14,0-.21-.01c-2.08-.16-1.97-.47-4.29-.56-2.31-.09-2.15-2.89-3.24-.15-1.09,2.72-1.26,2.45-.85,3.82.41,1.36,1.46,2.9,2.18,4.52.72,1.63.12,1.66,1.5,2.74.15.12.28.22.4.32.11.09.21.18.3.25.18.15.33.27.5.36.07.03.15.06.24.09.1.03.2.05.32.07.12.03.25.04.4.04.14.01.31.01.49.01.25.01.55.01.9,0,.37-.01.7-.01.99-.01.15,0,.3,0,.43.01.19.01.36.02.51.04.08.01.16.02.24.03.08,0,.16.02.23.04.08.01.14.02.21.04.13.03.26.07.39.11.35.11.7.26,1.14.46.17.08.35.17.55.26.11.05.22.1.33.15.1.04.21.09.3.14.11.04.21.09.3.14.19.08.37.17.54.25.12.06.24.11.36.17.14.07.29.14.43.2.17.08.34.16.52.25.55.26,1.15.54,1.93.88,2,.9,2.78,2.37,3.93,3Z"/>
      <path id="zenica-doboj-canton" class="cls-1" d="M268.09,140.11c-1.03,1.65-1.94,3.19-2.23,3.68l-.39.15s-3.32,2.82-4.13,3.59c-.82.76-1.75,2.45-3.5,3.48-1.74,1.04-.88,1.18-3.61,1.58-1.3.19-2.03-.03-2.45-.08-.26-.23-.56-.5-.91-.83-1.97-1.86-.31.55-2.62-2.3-1.46-1.81-1.01-2-1.11-2.2,0,0-.01-.03-.02-.03-.02-.03-.05-.06-.1-.09-.05-.03-.12-.07-.21-.12-.18-.09-.46-.23-.87-.42-2.5-1.18-1.83-1.53-3.19-1.47-1.37.07-.61-.47-2.58.07-1.96.55-.55-.65-2.62,1.64-2.06,2.29-1.14,2.73-2.53,2.94-1.39.22-2.19.07-2.81.22-.02,0-.04,0-.06,0-.07,0-.13-.04-.2-.09-.04-.05-.08-.09-.12-.14-.02-.02-.04-.05-.06-.08-.06-.08-.12-.18-.19-.27-.02-.03-.04-.06-.06-.09-.04-.06-.09-.12-.13-.16-.14-.15-.29-.21-.46-.08-.03.03-.06.06-.1.1-.02.03-.04.05-.06.08-.07.1-.14.22-.21.38-.05.11-.1.23-.15.37-.02.07-.05.15-.08.23-.02.08-.05.16-.08.25-.27.83-.42,1.49-.51,2.04-.03.22-.06.42-.08.61,0,.03-.01.07-.01.1-.06.86.03,1.42-.01,2.04-.01.13-.02.25-.04.38-.06.33-.09.62-.12.88-.03.27-.06.5-.14.71-.01.05-.03.11-.06.16-.01.04-.03.08-.06.12-.02.06-.06.11-.1.16-.04.06-.09.11-.15.17-.05.05-.11.1-.18.15s-.15.09-.23.14c-.08.04-.18.09-.28.13-1.31.54-1.64.76-3.93.76s-2.2.49-3.83.41c-.06,0-.12-.01-.18-.02-.05,0-.11-.02-.15-.03-.05-.01-.1-.02-.14-.04-.06-.02-.11-.05-.16-.07-.11-.07-.19-.14-.26-.21-.02-.02-.04-.04-.05-.05-.01-.02-.03-.03-.04-.04-.01-.02-.03-.04-.04-.04-.1-.1-.18-.13-.39.04-.09.07-.22.19-.39.38-.07.07-.14.15-.23.25,0,0,0,.01-.01.01-.17.19-.37.42-.61.71-2.25,2.63-3.24,4.49-2.63,5.02.6.55,1.4,1.31-.04,2.35-.9.65-1.71,1.54-2.17,2.11-.16-.09-.31-.17-.46-.26h0c-.3-.18-.58-.36-.85-.53-.14-.09-.27-.18-.4-.27-.27-.18-.52-.36-.76-.55-.23-.18-.45-.36-.66-.55-.02-.02-.03-.03-.04-.04-.22-.2-.43-.41-.63-.62-.2-.21-.4-.43-.58-.67-.09-.12-.18-.24-.27-.36-.18-.25-.35-.51-.51-.78-.08-.14-.16-.28-.24-.42-.8-1.49-.37-2.15-.57-2.8-.01-.05-.03-.1-.06-.15-.02-.07-.06-.13-.11-.2-.02-.04-.06-.08-.09-.12-.03-.05-.08-.1-.13-.14-.03-.05-.07-.08-.11-.11-.17-.15-.39-.31-.66-.47-.16-.11-.33-.21-.53-.32-.19-.1-.37-.2-.54-.29-.52-.28-.98-.5-1.38-.7-.14-.07-.27-.13-.39-.19s-.24-.12-.35-.18c-.2-.1-.38-.2-.54-.29-.02-.02-.04-.03-.06-.04-.09-.06-.18-.11-.26-.17s-.16-.12-.23-.17c-.07-.07-.13-.13-.19-.19-.07-.07-.12-.14-.18-.21-.05-.08-.1-.15-.15-.23-.1-.17-.18-.35-.25-.56-.03-.1-.06-.21-.09-.33-.12-.52-.21-.74-.3-.84,0-.02-.02-.03-.03-.04-.07-.07-.13-.05-.2-.1-.04-.05-.09-.12-.14-.26-.03-.11-.07-.26-.12-.46-.01-.05-.02-.11-.03-.16-.03-.18-.07-.39-.11-.64-.08-.51,0-.86.12-1.1.03-.06.06-.12.1-.16.04-.06.09-.12.14-.16.06-.06.12-.11.18-.16.12-.08.24-.15.31-.22.03-.03.05-.05.06-.08.06-.08.04-.18-.09-.32-.02-.03-.05-.06-.07-.07-.03-.04-.06-.07-.09-.09-.09-.09-.22-.19-.37-.31-.09-.07-.2-.14-.32-.22-.36-.25-.83-.56-1.45-.95-4.01-2.53-7.15-.04-7.89-1.88-.02-.06-.04-.11-.06-.17-.04-.13-.06-.27-.08-.43-.03-.23-.04-.48-.03-.78.02-.39.08-.75.17-1.08.03-.11.07-.22.11-.32.32-.81.85-1.43,1.33-1.95t.01-.01c.07-.08.14-.15.21-.22.13-.14.26-.27.37-.4.39-.44.61-.82.4-1.22-.02-.05-.05-.11-.1-.16-.01-.02-.02-.04-.04-.05-.03-.04-.07-.08-.11-.11-.09-.1-.21-.2-.35-.28-.42-.3-1.07-.62-2-.99-.49-.2-.96-.36-1.4-.48-.22-.07-.43-.13-.64-.18-.21-.05-.41-.1-.61-.13-.2-.05-.4-.08-.58-.11-.19-.03-.37-.05-.54-.07-.3-.04-.59-.06-.86-.08-.14-.01-.27-.02-.39-.02-.13-.01-.25-.01-.37-.01-.12-.01-.23-.01-.34-.01-.33,0-.62,0-.89-.03-.15-.02-.29-.03-.43-.05-.01-.01-.02-.01-.04-.01-.11-.03-.22-.05-.32-.09-.05-.02-.1-.04-.15-.07-.05-.03-.1-.06-.14-.09-.04-.03-.09-.07-.12-.11-.08-.08-.15-.17-.21-.28-.03-.06-.05-.12-.08-.18-.11-.33-.17-.78-.17-1.39,0-3.2.67-5.33.99-7.58.06-.34.1-.69.12-1.05.03-.18.04-.36.05-.54.15-2.9-1.64-3.26-2.92-6.94-1.26-3.67-2.33-3.96-1.46-5.27.04-.07.08-.16.1-.26h0c.04-.18.05-.39.02-.64,0-.1-.02-.2-.04-.31-.01-.08-.02-.16-.05-.25-.01-.09-.03-.17-.06-.27-.08-.36-.2-.76-.34-1.18-.02-.07-.04-.14-.07-.21-.05-.14-.1-.29-.15-.43.67-.36,1.63-.89,2.76-1.53.24-.14.49-.28.75-.43.66-.38,1.35-.79,2.06-1.22.28-.17.57-.35.86-.53,2.03-1.24,4.11-2.62,5.74-3.91.26-.2.5-.4.72-.6.12-.09.23-.18.33-.29.51-.44.94-.87,1.26-1.28.09-.1.16-.19.23-.28h0c.08-.11.14-.2.18-.29.04-.07.09-.14.12-.21.11-.2.18-.39.21-.57.09-.53.21-1.07.32-1.63h0c.08-.38.16-.76.22-1.15.16-.96.24-1.98.07-3.09-.02-.21-.07-.43-.12-.65-.05-.22-.11-.44-.19-.67-.1-.34-.24-.69-.41-1.06-.35-.76-.84-1.56-1.51-2.41-.13-.18-.28-.36-.44-.55-.15-.18-.31-.36-.49-.55-.17-.19-.35-.38-.54-.57-.43-.44-.91-.89-1.43-1.35,0,0-4.2-6.79.44-13.89.44-.68.91-1.27,1.38-1.78.16-.17.32-.33.48-.48.24-.23.49-.44.73-.62.12-.1.25-.19.37-.27.25-.18.5-.34.75-.47.12-.07.24-.13.37-.19.12-.06.25-.12.37-.17.25-.11.51-.2.75-.28.51-.16,1.01-.27,1.49-.32.12-.02.24-.03.36-.04.12,0,.24-.02.36-.02.15-.01.29-.01.43-.01.16,0,.33.01.49.02.37.02.73.06,1.07.12.18.03.35.06.51.09.17.04.33.08.49.12.16.04.32.08.47.13.31.09.59.18.86.28.21.08.41.16.6.24.03.01.06.02.09.03.13.06.26.11.37.16.19.09.36.17.51.24.26.12.55.36.87.69.04.05.08.09.12.13.13.13.26.28.38.43.1.13.21.26.32.41.25.32.49.66.74,1.03.12.19.25.38.38.58.15.23.3.47.45.71.09.15.18.3.27.45.65,1.08,1.28,2.23,1.85,3.31.11.22.21.42.32.63.28.55.54,1.07.77,1.55.04.06.07.13.09.19.15.32.29.62.42.89.02.03.03.05.03.08.14.29.25.55.34.76.96,2.3,1.64,4.28,2.5,4.91.06.03.12.07.18.1h.01c.93.44,7.05,1.34,13.2,1.12h0c-.14,2.62-.2,5.88.24,6.37.76.84-.55,2.26,0,6.73.22,1.8.17,2.9.16,3.65,0,.77.06,1.19.53,1.65.22.22.52.44.95.7.73.46,1.54.27,2.32-.07.18-.09.36-.17.53-.26.54-.27,1.06-.58,1.54-.74.08-.03.16-.06.24-.08.29-.07.55-.08.79,0,.05.02.1.04.14.06.04.02.08.05.12.07.06.05.12.11.18.17.18.19.34.47.47.85.46,1.38.42,2.25.37,3.01-.02.44-.04.83.02,1.28h0c.03.22.09.44.17.68,0,.01.01.01.01.01.09.25.21.51.37.79h.01c.13.23.28.46.46.71.06.09.12.17.19.26.1.13.19.26.28.38h0c.19.26.34.49.49.7.06.12.14.23.21.33.1.16.19.3.29.45.08.14.17.27.25.4.05.09.11.17.16.25.21.32.39.6.59.85.1.12.2.24.31.35.11.11.22.21.35.31.18.15.39.28.64.4s.53.24.85.35c.15.06.32.12.5.17,1.02.3,1.73.08,2.29-.13.18-.08.34-.15.49-.2.33-.12.6-.14.86.11.04.04.08.08.12.14.3.37.58,1.1.93,2.44.12.47.24.91.34,1.3.07.26.14.51.2.74.03.11.06.23.09.34.03.13.07.26.1.38.01.07.03.13.05.18.02.06.04.12.05.18.06.23.11.44.17.64.07.26.13.51.18.73.06.23.1.45.14.65.04.21.08.41.1.62,0,.03.01.06.01.09.03.27.06.56.08.87,0,.07,0,.14,0,.21.02.4.03.86.03,1.4,0,.82-.13,1.62-.27,2.34-.2,1.14-.41,2.1-.11,2.74.03.06.06.11.1.17.03.05.07.1.12.15.1.1.21.17.34.24h.01c.11.05.23.1.37.14.28.07.63.11,1.06.11,3.44,0,4.7-.29,6.13,1.1.06.07.13.14.2.21h.01c.08.08.15.16.21.24.13.14.24.27.32.38h0c.05.06.09.11.12.15h0c.11.14.18.22.27.28.03.02.07.03.1.04.1.03.21.02.37-.02.04-.01.08-.03.13-.04.04-.02.09-.03.13-.04.14-.04.31-.1.51-.18.13-.04.28-.1.44-.16h.01c.09-.02.18-.06.27-.09.1-.03.2-.07.3-.1.42-.14.91-.29,1.51-.46,3.62-1.04,4.56-1.2,5.45-.29.06.06.12.12.18.19.18.2.37.45.58.75.08.11.15.22.22.32.06.1.13.2.19.29.12.18.21.33.31.47.11.18.21.33.3.46.05.08.11.15.17.22.05.06.1.12.17.17.05.06.12.12.2.18.2.15.45.31.81.5h.01Z"/>
      <path id="bijeljina" class="cls-1" d="M321.72,52.43l-.31.35-.47.12c-1.55,3.09-2.67,16.54-5.21,19.09-2.95,2.08-3.65,4.04-4.63,7.36l-2.28,3.89c-1.73-.52-3.32-.46-6.28.07-5.27.94-9.91,3.2-11.07,2.25-.02-.02-.05-.04-.07-.06,0-.16-.01-.32-.02-.47,0-.16,0-.31-.02-.46-.02-.43-.04-.81-.06-1.1-.01-.07-.01-.14-.02-.2-.01-.19-.02-.34-.04-.44-.01-.04-.01-.08-.02-.11-.06-.54-.03-1.11-.33-1.56-.05-.07-.09-.13-.15-.19l-.09-.09c-.05-.06-.12-.11-.19-.15-.04-.03-.09-.06-.15-.09-.19-.1-.41-.19-.69-.25-.13-.03-.26-.06-.4-.08-.01,0-.03,0-.05,0-.13-.02-.27-.04-.41-.05-.13-.02-.28-.03-.44-.03-.1-.01-.21-.01-.33-.01-.31-.02-.66-.01-1.04,0-1.15.04-2.02.49-2.72,1.2-.09.09-.17.18-.26.28-.25.29-.48.62-.7.97-.07.12-.14.24-.21.36-.37.64-.7,1.36-1.04,2.11-.11.25-.23.51-.34.77-.01.02-.02.04-.03.06-.24.52-.49,1.05-.76,1.57-.09.18-.19.35-.28.53-.29.51-.59,1.03-.94,1.51-.01.01,0,.01,0,.01-.36.49-.74.95-1.18,1.38-.16.15-.31.29-.47.42-.15.13-.3.23-.45.33-.19.12-.37.21-.56.28-.29.11-.57.16-.84.16-.08,0-.16-.01-.24-.02-.08-.01-.16-.02-.24-.05-.06-.01-.11-.02-.17-.05-.07-.01-.13-.04-.2-.07-.08-.03-.16-.07-.25-.12-.07-.03-.14-.08-.22-.13-.22-.15-.44-.32-.66-.51h0c-.14-.13-.28-.27-.42-.42-.22-.23-.44-.48-.65-.74-.16-.18-.3-.36-.45-.54-.15-.19-.3-.38-.45-.58-1.06-1.37-2.23-2.93-3.69-4.13-.75-.61-1.39-1.26-1.94-1.92-.11-.14-.22-.27-.31-.41-.2-.27-.38-.54-.54-.81-.71-1.19-1.06-2.4-.98-3.51.01-.19.04-.39.08-.58.14-.66.45-1.28.95-1.82.07-.08.15-.16.23-.22.06-.07.13-.13.2-.19.18-.16.39-.3.61-.43.09-.07.19-.12.3-.18.11-.06.23-.12.35-.18.18-.08.36-.18.52-.27.13-.08.26-.16.37-.24.02-.01.04-.03.06-.04.12-.08.23-.16.34-.25.14-.12.27-.24.4-.36.12-.12.24-.24.35-.36.06-.07.12-.15.18-.22.48-.6.83-1.25,1.08-1.9,0-.01.01-.01.01-.01.06-.17.12-.34.18-.51.09-.3.16-.6.22-.88.04-.22.08-.43.11-.62.12-.83.1-1.47.09-1.69.16-.3.31-.58.41-.8.14-.27.33-.5.54-.69.14-.12.28-.23.43-.34h.01c.15-.1.3-.19.44-.29.08-.04.15-.09.22-.14.06-.04.12-.08.17-.14h.01c.08-.07.15-.15.21-.22.09-.1.18-.19.28-.28.08-.06.18-.11.3-.15.17-.06.4-.1.71-.09,1.16.05,1.01.95,2.57.08s1.13-.58,1.93-1.06c.45-.25.71.01.93-.04.18-.03.32-.27.49-1.15.4-1.96.41-2.06.76-2.98.09-.23.15-.4.21-.53.07-.13.14-.23.22-.32.02-.02.04-.04.07-.07.07-.06.15-.13.26-.21.11-.08.23-.16.38-.28.06-.03.12-.07.18-.12.12-.09.21-.16.29-.23l.1-.1s.07-.07.09-.1c.09-.09.14-.17.19-.25.07-.09.14-.18.28-.28h0c.06-.04.14-.09.23-.15.1-.04.22-.1.37-.17.73-.32,1.2-.11,1.52-.24.04-.01.07-.03.1-.07t.01,0c.13-.1.22-.3.3-.67.26-1.31.03-.91,0-2.21v-.42c.82,0,1.96-.05,2.45-.06.63-.22,3.08-.97,3.77-1.17.83-.07,2.47-.41,3.22-.78.45-.26,8.61-6.6,8.99-6.03.64.58.74,1.77,1.33,2.38,1.02.2,2.3-.77,3.3-.84.58.09,4.19,1.07,4.71.72.35-.26,1.07-.45,1.51-.37.86.84,2.38,2.67,3.76,1.76v-.11c.39.45.94,1.08,1.38,1.47.53.78.67,2.06.7,2.98Z"/>
      <path id="podrinje" class="cls-1" d="M343,154.27l-.74,2.03-1.49,1.68c-1.17.92-4.18,3.26-5.7,3.45-1.45.39-5.66-.15-7.15-.32l-4.68.35c-.62.25-1.9.49-2.57.46-2.19-1.29-4.25-4.17-6.79-4.87-2.07-.02-4.64.89-4.33,3.39.19.57.54,1.82.24,2.39l-.37.36c-.21-.41-.36-.93-.48-1.58-.94-5.27.75-5.27-2.45-6.78-3.2-1.5-5.08-1.05-7.15-4.48-2.07-3.42,2.36-4.97-4.94-6.55-7.3-1.58-4.66-1.01-10.12-2.14s-6.07-1.7-11.03-3.01c-1.89-.5-3.07-.4-4.01-.34.1-.16.2-.31.3-.46,1.73-2.58-.37-11.05-2.33-15.2-.44-.92-.73-1.79-.91-2.59-.61-2.79.1-4.76.36-5.48.01-.03.02-.06.04-.08.02-.03.06-.06.1-.09.32-.21,1.08-.17,1.97-.25.08-.01.15-.01.23-.02.4-.04.81-.1,1.22-.23.08-.02.16-.05.24-.08.16-.05.32-.12.48-.2.16-.08.31-.16.45-.27.15-.11.29-.22.43-.36.08-.08.17-.17.25-.27.26-.28.47-.62.65-1.04.21-.5.43-.97.65-1.39.07-.14.15-.28.23-.41.11-.18.21-.35.32-.51.11-.16.22-.32.33-.47.11-.15.23-.29.36-.43.12-.13.24-.26.37-.38.26-.25.54-.47.85-.66.29-.19.61-.35.96-.49.37-.15.77-.27,1.21-.36.19-.04.38-.07.58-.1.25-.04.51-.07.79-.08.21-.02.43-.03.65-.04h.01c.21,0,.41-.02.6-.04.17-.01.32-.03.48-.06.03,0,.06-.01.09-.01.35-.06.67-.14.97-.24.14-.04.27-.09.4-.14.18-.07.34-.14.5-.22.11-.06.22-.11.32-.17.12-.07.24-.14.36-.22.14-.09.28-.19.41-.29.08-.06.16-.12.25-.19.21-.16.42-.34.62-.51.41-.35.82-.71,1.28-1.05.14-.11.29-.22.44-.32.3-.2.62-.39.97-.57.37-.18.68-.35.96-.52.27-.18.5-.34.71-.51.1-.09.19-.18.28-.27.11-.1.21-.22.29-.34.1-.12.18-.24.24-.37.08-.12.14-.25.19-.39.06-.13.12-.27.16-.42.03-.09.05-.18.08-.27.02-.09.05-.19.07-.28.02-.1.04-.2.07-.31.03-.13.05-.26.08-.4.08-.42.17-.89.27-1.41.42-2.16.4-7.88.28-11.35.02.02.05.04.07.06,1.16.95,5.8-1.31,11.07-2.25,2.96-.53,4.55-.59,6.28-.07l-1.86,3.18c-.23.35-1.02.74-1.36.95-.85.72-.54,2.4-.52,3.37-.04.53-.39,1.4-.66,1.86h-.03c-.51,1.48-3.11,2.02-4.36,2.45-.67,1.33.88,6.1,1.19,7.41l-.18,3.38c-.46.91-1.58,2.6-2.25,3.35l-.75,2.57c-.03,3.68,1.92,8.22,4.37,10.94,1.07.71,4.29,1.39,5.55,1.65,1.02.57,2.62,1.35,3.83,1.23.72-.17,3.13-.92,3.84-.5,1.92,1.25,3.36,4,4.09,6.12,0,1.01.24,3.17.74,4.05.96,1.3,4.16,3.62,5.5,4.6.29.32,1.12,1.16,1.55,1.28l.51-.13.99-1.02.54-.02.74.97.19,2.2c.27.55,1.45,1.63,1.91,2.04.37.53,1.75,2.59,2.1,3.09l2.87,1.67c.44.56,1.64,2.1,2.26,2.43.22-.21.67-.82.85-1.07l.79-.29,1.09.99.65,2.28Z"/>
      <path id="romanija" class="cls-1" d="M331.01,191.98c-7.19-.33-7.12-1.29-9.84,1.07-2.82,2.44-1.31,4.98-4.7,3.43-3.39-1.55-1.32-6.26-7.72-1.74-6.4,4.52-4.89,2.42-7.81,6.1-2.92,3.69-1.04,2.18-4.05,5.19-3.01,3.02,2.71,5.12-5.42,4.16-8.13-.96-4.55,1.3-9.82-2.27-.18-.12-.35-.23-.51-.34.05-.02.1-.04.15-.06.18-.07.34-.14.51-.21.39-.18.75-.37,1.11-.6.17-.1.33-.21.49-.33.16-.11.33-.23.5-.37.8-.62,1.66-1.41,2.84-2.44.33-.29.63-.55.9-.77.14-.12.27-.23.39-.33.63-.52,1.11-.88,1.54-1.14.11-.07.22-.13.33-.18.1-.06.2-.1.3-.15.36-.15.7-.23,1.09-.28.09-.02.17-.03.26-.03.18-.02.36-.03.56-.04s.42-.02.66-.03c.12,0,.24,0,.37-.02,2.78-.16.21-2.48-.52-5.18-.74-2.69-3.55-3.55-5.38-3.34-1.81.22-3.04-1.94-3.04-1.94-.36,0-.94-1.43-1.94-2.47-.98-1.03-.53-.05-3.64-.76-3.11-.71-3.82-.27-6.66-.26-.25,0-.49,0-.71-.01-.23,0-.44,0-.64-.01h-.01s-.03.01-.05,0c-.18,0-.36,0-.53-.01-.51,0-.95,0-1.4.03-.31.02-.63.06-.96.12-.13.03-.27.06-.41.09-.17.04-.34.08-.52.14-.37.1-.76.23-1.21.4-2.78,1.04-1.15,1.04-1.75,2.74-.59,1.69-.71,2.61-1.03,3.64-.33,1.04-.99,2.19-2.07,3.17-1.09.98-.88.49-3.11.76-2.25.28-2.46-.1-3.66-.7-.03-.01-.09-.06-.09-.06-1.15-.63-1.93-2.1-3.93-3-.78-.34-1.38-.62-1.93-.88-.18-.09-.35-.17-.52-.25-.14-.06-.29-.13-.43-.2-.12-.06-.24-.11-.36-.17-.17-.08-.35-.17-.54-.25-.09-.05-.19-.1-.3-.14-.09-.05-.2-.1-.3-.14-.11-.06-.22-.11-.33-.16-.2-.09-.38-.18-.55-.25-.44-.2-.79-.35-1.14-.46-.12-.05-.25-.08-.39-.11-.07-.02-.13-.03-.21-.04-.07-.02-.15-.03-.23-.04-.08-.01-.16-.02-.24-.03-.15-.02-.32-.03-.51-.04-.13-.01-.28-.01-.43-.01-.29-.01-.62-.01-.99,0-.35.01-.65.01-.9.01-.18,0-.35,0-.49-.01-.15-.01-.29-.02-.4-.04-.12-.02-.22-.04-.32-.07-.09-.03-.17-.06-.24-.09-.17-.09-.32-.21-.5-.36-.09-.07-.19-.16-.3-.25-.12-.1-.25-.2-.4-.32-1.38-1.08-.78-1.11-1.5-2.74-.72-1.62-1.77-3.16-2.18-4.52-.41-1.37-.24-1.1.85-3.82,1.09-2.74.93.06,3.24.15,2.32.09,2.21.4,4.29.56.07.01.14.01.21.01s.13.01.2.01c.15,0,.28-.01.4-.03.12-.01.23-.03.32-.07h.01c.09-.02.17-.06.24-.11.01,0,.01-.01.02-.01.08-.04.14-.09.2-.15.04-.04.08-.08.12-.12.07-.08.13-.17.18-.26.03-.06.07-.12.1-.18.11-.19.22-.4.36-.63.03-.07.08-.14.13-.22.1-.15.21-.31.35-.48,1.14-1.42.59-2.07.7-4.42.12-2.35.4-5.18-.64-6.71-.29-.44-.4-.93-.4-1.45,0-.31.04-.62.09-.94.05-.29.12-.59.18-.88.05-.22.1-.44.15-.65.06-.26.11-.51.13-.75,0-.03,0-.06,0-.09.01-.12.02-.23.02-.35v-.24c-.02-.28-.01-.51.03-.71,0-.06.02-.12.04-.17.02-.06.05-.12.09-.18.02-.05.05-.09.08-.13.08-.1.17-.2.29-.29.1-.09.23-.18.37-.27.14-.09.3-.18.47-.28.45-.26,1.02-.57,1.72-1.02,2.41-1.53,3.07-1.86,3.29-3.87.11-1.05.22-1.19.69-1.13.42.05,1.15.27,2.45.08,2.73-.4,1.87-.54,3.61-1.58,1.75-1.03,2.68-2.72,3.5-3.48.81-.77,4.13-3.59,4.13-3.59l.39-.14h0c.29-.5,1.2-2.04,2.23-3.69.23-.38.48-.76.72-1.14.11-.19.24-.38.37-.57.02-.03.04-.06.06-.09.94-.06,2.12-.16,4.01.34,4.96,1.31,5.57,1.88,11.03,3.01s2.82.56,10.12,2.14c7.3,1.58,2.87,3.13,4.94,6.55,2.07,3.43,3.95,2.98,7.15,4.48,3.2,1.51,1.51,1.51,2.45,6.78.12.65.27,1.17.48,1.58l-.64.63,1.03.64v.04c4.26,2.42,7.85,9.42,10.4,13.42l8.98,9.75c.56,1.23,1.21,2.72,1.82,4.31Z"/>
      <path id="eastern-herzegovina" class="cls-1" d="M331.84,211.18l-.2.5-.68.43c-.75-.27-3.6-1.66-4.4-1.25-.32.81-1.2,3.1-1.85,3.7-1.63-2.7-2.44-6.85-5.63-8.27-1.74.27-3.12,2.84-5.03,2.55-.71-.14-2.58-.56-3.22-.11-1.41,1.8-1.89,4.88-3.08,6.79h-1.96c-1.44-.28-4.97-.87-6.39-.39-2.07,2.74-3.76,4.5-7.43,3.03-1.18-1.22-1.96-3.43-3.32-4.48-2.53-.21-3.94,1.84-5.39,3.52-1.37.63-3.4,1.57-2.92,3.42.43.49,1.56.91,2.19,1.02.61.13,1.49,1.78,1.81,2.25.09.75-.54,1.65-.42,2.39l1.92-.5c.46.03,3.33,4.11,3.66,4.49.98,3.15,3.49,9.58,5.24,12.35l-.62.54c-4.66-.23-3.34,2.23-6.17,4.49-.53-1.29-2.33-3.1-2.89-4.38-.3-.79-.11-1.89-.2-2.71-.92-1.54-3.4-2.85-5.11-3.13-1.28.15-5.87.33-6.84,1.27.39.52.71,1.55,1.08,2.08l-2.31.75c-1.21,1.04-12.47,8.57-12.54,10.19l2.09,1.06c-7.57,9.3-6.44,13.51-4.35,24.58-4.06-.88-9.76-.55-13.71.67l-2.66,2.56c-.51,1.38-2.12,5.29-1.64,6.77.68,2.65,3.17,6.17,3.45,8.93-.25.69-1.1,1.66-1.74,2.02l-.87,1.34c-.19,4.36,2.88,9.28,5.14,12.82.93.86,2.59,2.78,3.31,3.83.69,1.74,1.07,4.88.86,6.74-.24.58-.76,1.91-.99,2.47-1.08,1.29-3.06,2.66-4.54,3.4.34.52.79,1.63.8,2.27l-.31.73-.92.12c-1.35-1.18-2.81-.74-3.89.54-.9-.54-3.55-.78-4.57-.86l-1.17-.76c.11-3.53-.04-8.42-1.62-8.83-2.51-.65-3.18-2.83-6.01-6.11-.18-.2-.34-.39-.49-.56-.15-.17-.29-.33-.43-.47-.07-.07-.13-.14-.2-.2l-.09-.09s-.03-.04-.05-.05c-.02-.03-.03-.04-.04-.04-.1-.1-.19-.18-.28-.27-.07-.08-.14-.14-.21-.2-.61-.54-1.1-.87-1.9-1.56-.05-.05-.11-.1-.17-.15-.04-.03-.08-.07-.12-.11-.22-.19-.47-.42-.75-.69-.04-.04-.09-.08-.14-.13-.08-.08-.16-.16-.24-.24-.16-.16-.34-.33-.52-.52l-.29-.29c-.39-.41-.83-.87-1.32-1.4-4.84-5.22-2.04-4.71-8.14-7.65-6.11-2.95-4.65-5.04-6.56-10.59-1.9-5.55-2.89-8.61-1.69-11.45,1.19-2.84,3.21-8.06,3.6-10.84.38-2.79-.73-3.38-3.33-3.85-2.6-.46-1.88-.95-2.46-3.62-.03-.16-.06-.31-.08-.45s-.03-.28-.03-.4c0-.1,0-.19.02-.27.02-.2.08-.37.16-.52.08-.14.18-.27.3-.39.07-.06.14-.12.22-.17.07-.06.14-.11.22-.16.08-.05.16-.11.25-.16.28-.16.59-.33.92-.54.23-.14.47-.29.72-.47.09-.07.19-.14.28-.21.05-.03.1-.07.15-.12.05-.03.1-.07.15-.12.1-.08.19-.16.29-.26.1-.08.21-.18.31-.28.09-.09.17-.17.25-.25.26-.26.47-.48.63-.67.12-.12.21-.23.28-.33.12-.15.21-.3.27-.43.02-.04.04-.07.05-.11.04-.08.06-.16.08-.23.01-.07.02-.13.03-.2.07-.63-.15-1.44.13-3.57.55-4.15-1.09-5.35-.21-10.81.86-5.46-1.31-4.03-2.63-10.04h0c-.05-.22-.09-.42-.13-.62-.08-.39-.12-.72-.15-1.02-.03-.3-.03-.57,0-.8.01-.11.03-.21.05-.31.01-.06.02-.11.04-.15.03-.09.07-.18.11-.25,0-.01.02-.02.02-.02.02-.04.04-.07.07-.1.02-.04.04-.06.07-.09.05-.06.12-.11.18-.15.07-.05.14-.09.22-.12h.01c.08-.04.16-.07.25-.09.1-.03.19-.05.3-.06.07-.01.14-.02.22-.03.3-.03.65-.03,1.05,0,.18.01.37.02.58.04.22.02.45.04.69.07.24.02.48.05.74.09.09.01.19.02.28.03.39.05.79.1,1.23.15.67.08,1.4.16,2.2.24.52.05,1.08.1,1.66.14.29.03.59.05.89.07.6.03,1.24.07,1.91.09,6.41.22,12.36.32,16.04.28.55-.01,1.04-.01,1.48-.03.24,0,.45,0,.66-.02.1,0,.19-.01.29-.01.07,0,.13-.01.2-.01.1-.01.2-.02.3-.02.22-.02.4-.04.54-.06.1,0,.17-.03.22-.04.03-.01.05-.02.07-.03.02-.01.03-.02.03-.02h0s0-.04-.01-.04h-.01c-.53-.46-.54-6.4-1.58-10.88-.04-.19-.08-.37-.12-.56-.06-.36-.1-.72-.12-1.08-.13-2.41.7-4.37,1.27-5.45h-.01c.23-.4.41-.69.5-.81.02-.68.12-1.53.45-2.17.67-1.31.89-2.83,1.1-4.36.22-1.53-.43-1.69.3-3.21.72-1.52-.58-2.17,1.53-1.95,2.11.21,2.32-.08,4.65,1.01,2.32,1.1,2.77,1.03,4.36,2.11,1.61,1.09,2.11,1.82,2.69,2.19.58.36,1.9,1.11,1.9,1.11,0,0,.05.04.13.11.46.34,2.03,1.57,3.44,2.93,1.68,1.59,6.17,3.46,9.89,4.06,3.74.62,7.79-.86,12.45-1.66.29-.05.57-.1.83-.16.26-.05.51-.1.75-.16.35-.08.67-.16.98-.25.2-.06.39-.12.58-.19.04,0,.08-.03.12-.04h.01c.16.11.33.22.51.34,5.27,3.57,1.69,1.31,9.82,2.27,8.13.96,2.41-1.14,5.42-4.16,3.01-3.01,1.13-1.5,4.05-5.19,2.92-3.68,1.41-1.58,7.81-6.1,6.4-4.52,4.33.19,7.72,1.74,3.39,1.55,1.88-.99,4.7-3.43,2.72-2.36,2.65-1.4,9.84-1.07,1.22,3.22,2.3,6.86,2.19,9.66l-2.24,2.22c-.58,1.88-.8,4.33,0,6.17.29.23.8.77.88,1.15Z"/>
      <path id="bosnian-podrinje" class="cls-1" d="M293.14,200.6c-.13.01-.25.01-.37.02-.24.01-.46.02-.66.03s-.38.02-.56.04c-.09,0-.17.01-.26.03-.39.05-.73.13-1.09.28-.1.05-.2.09-.3.15-.11.05-.22.11-.33.18-.43.26-.91.62-1.54,1.14-.12.1-.25.21-.39.33-.27.22-.57.48-.9.77-1.18,1.03-2.04,1.82-2.84,2.44-.16.13-.33.25-.5.37-.16.12-.32.23-.49.33-.36.23-.72.42-1.11.6-.17.07-.33.14-.51.21-.05.02-.1.04-.15.06h-.01s-.08.03-.12.04c-.19.07-.38.13-.58.19-.31.09-.63.17-.98.25-.24.06-.49.11-.75.16-.26.06-.54.11-.83.16-4.66.8-8.71,2.28-12.45,1.66-3.72-.6-8.21-2.47-9.89-4.06-1.41-1.36-2.98-2.59-3.44-2.93l.12-2.64,1.6-3.46s.06.05.09.06c1.2.6,1.41.98,3.66.7,2.23-.27,2.02.22,3.11-.76,1.08-.98,1.74-2.13,2.07-3.17.32-1.03.44-1.95,1.03-3.64.6-1.7-1.03-1.7,1.75-2.74.45-.17.84-.3,1.21-.4.18-.06.35-.1.52-.14.14-.03.28-.06.41-.09.33-.06.65-.1.96-.12.45-.04.89-.04,1.4-.03.17.01.35.01.53.01.02.01.03.01.05,0h.01c.2.01.41.01.64.01.22.01.46.01.71.01,2.84-.01,3.55-.45,6.66.26,3.11.71,2.66-.27,3.64.76,1,1.04,1.58,2.47,1.94,2.47,0,0,1.23,2.16,3.04,1.94,1.83-.21,4.64.65,5.38,3.34.73,2.7,3.3,5.02.52,5.18Z"/>
      <path id="tuzla-canton" class="cls-1" d="M291.11,96.85c-.11.52-.19.99-.26,1.41-.03.14-.05.27-.08.4-.03.11-.05.21-.07.31-.02.09-.05.19-.07.28-.03.09-.05.18-.08.27-.05.15-.1.29-.16.42-.05.14-.12.27-.19.39-.07.13-.15.25-.24.37-.09.11-.18.23-.29.34-.09.09-.18.18-.28.27-.21.17-.44.33-.71.51-.28.17-.59.34-.96.52-.36.17-.68.36-.97.57-.15.1-.3.21-.44.32-.46.34-.87.7-1.28,1.05-.2.17-.41.35-.62.51-.09.07-.17.13-.25.19-.13.1-.27.2-.41.29-.12.08-.24.15-.36.22-.1.06-.21.11-.32.17-.16.08-.32.15-.5.22-.13.05-.26.1-.4.14-.3.1-.62.18-.97.24-.03,0-.06.01-.09.01-.16.02-.32.04-.48.06-.19.02-.39.03-.6.04h-.01c-.22.01-.44.02-.65.04-.28.01-.54.04-.79.08-.2.03-.39.06-.58.1-.44.09-.84.21-1.21.36-.35.14-.67.3-.96.49-.31.19-.59.4-.85.66-.13.12-.25.25-.37.38-.13.14-.25.28-.36.43-.12.15-.23.3-.33.47-.12.16-.23.33-.32.51-.08.13-.16.27-.23.41-.23.42-.45.89-.67,1.39-.18.41-.39.76-.63,1.04-.08.1-.17.19-.25.27-.14.14-.28.25-.43.36-.15.1-.3.19-.45.27-.16.08-.32.15-.48.2-.08.03-.16.06-.24.08-.41.13-.82.19-1.22.23-.08.01-.15.01-.23.02-.89.08-1.65.04-1.97.25-.04.03-.08.06-.1.09-.02.02-.04.05-.05.08-.26.72-.97,2.69-.35,5.48.17.8.46,1.67.9,2.59,1.96,4.15,4.06,12.62,2.33,15.2-.1.15-.2.3-.3.46-.02.03-.04.06-.05.09-.13.19-.26.38-.37.57-.25.38-.5.77-.73,1.14-.36-.19-.61-.35-.81-.5-.07-.06-.14-.12-.2-.18-.07-.05-.12-.11-.17-.17-.06-.07-.12-.14-.17-.22-.09-.13-.19-.28-.3-.46-.1-.14-.19-.29-.31-.47-.06-.09-.13-.19-.19-.29-.07-.1-.15-.21-.23-.32-.21-.29-.39-.54-.57-.75-.06-.07-.12-.13-.18-.19-.89-.91-1.83-.75-5.45.29-.6.17-1.09.32-1.51.46-.1.03-.2.07-.3.1-.09.03-.19.06-.27.09h-.01c-.17.06-.31.11-.44.16-.2.07-.37.13-.51.18-.04.01-.09.02-.13.04-.05.01-.09.03-.13.04-.16.04-.27.05-.37.02-.03-.01-.07-.02-.1-.04-.09-.05-.17-.13-.27-.27h0s-.07-.1-.12-.15h0c-.08-.12-.19-.25-.32-.39-.07-.07-.14-.15-.22-.24-.07-.07-.14-.14-.2-.21-1.43-1.39-2.69-1.1-6.13-1.1-.43,0-.78-.04-1.06-.11-.14-.04-.26-.09-.37-.14h-.01c-.13-.07-.24-.14-.34-.24-.05-.05-.09-.1-.12-.15-.04-.06-.07-.11-.1-.17-.32-.63-.11-1.6.11-2.74.13-.73.26-1.52.26-2.34,0-.54-.01-1-.02-1.4,0-.07,0-.14,0-.21-.02-.31-.05-.6-.08-.87,0-.03-.01-.06-.01-.09-.02-.21-.06-.41-.1-.62-.04-.2-.08-.42-.14-.65-.05-.22-.11-.47-.18-.73-.06-.2-.11-.41-.17-.64,0-.06-.03-.12-.05-.18-.02-.05-.04-.11-.05-.18-.03-.12-.07-.25-.1-.38-.03-.11-.06-.23-.09-.34-.06-.23-.13-.48-.2-.74-.11-.39-.22-.83-.35-1.3-.36-1.34-.64-2.07-.92-2.44-.04-.06-.08-.1-.12-.14-.26-.25-.53-.23-.86-.11-.15.04-.31.12-.49.2-.56.21-1.27.43-2.29.13-.18-.05-.35-.11-.5-.17-.33-.1-.61-.22-.85-.35-.25-.12-.46-.25-.64-.4-.13-.1-.24-.2-.35-.31-.11-.11-.21-.23-.31-.35-.21-.25-.39-.53-.59-.85-.05-.08-.11-.16-.16-.25-.08-.13-.17-.26-.25-.4-.1-.15-.19-.29-.29-.45-.07-.1-.15-.21-.21-.33-.16-.22-.32-.45-.49-.69h0c-.1-.14-.19-.26-.29-.39-.07-.09-.13-.18-.18-.26-.18-.25-.33-.48-.46-.7h-.01c-.16-.29-.28-.55-.37-.8,0,0-.01,0-.01-.01-.09-.24-.14-.46-.17-.67h0c-.08-.45-.05-.85-.02-1.29.03-.76.08-1.63-.39-3.01-.13-.37-.28-.65-.45-.85-.06-.06-.12-.12-.18-.17-.04-.02-.08-.05-.12-.07-.04-.02-.09-.04-.14-.06-.24-.08-.5-.07-.79,0-.08.02-.16.04-.24.08-.48.16-1,.47-1.54.74-.17.09-.35.17-.53.26-.78.34-1.59.53-2.32.07-.43-.26-.73-.48-.95-.7-.47-.46-.53-.88-.53-1.65s.05-1.85-.17-3.65c-.55-4.47.76-5.89,0-6.73-.45-.49-.38-3.75-.24-6.37h0c.18,0,.35,0,.54-.02,6.32-.29,9.81-.48,8.61-4.57-1.2-4.08-9.64-7.43-16.55-10.12-6.91-2.69-13.01-6.04-10.87-10.26,2.15-4.21,11.51-1.24,14.86-2.62s5.3-1.94,6.77-6.59c1.48-4.63.64-9.36,11.18-8.44.91.08,1.65.17,2.26.26.31.05.58.1.81.15.48.1.84.21,1.09.33.12.05.22.11.3.18.15.12.22.25.22.38,0,.05-.01.11-.03.16-.02.07-.06.14-.11.21-.04.07-.09.14-.15.2-.15.18-.35.37-.56.57-.04.04-.09.08-.14.13-.33.31-.67.64-.84.99-.06.11-.1.22-.13.33-.01.03-.02.06-.01.09-.02.09,0,.18,0,.27.07.36.38.75,1.09,1.15,4.45,2.5,6.84-.11,11.44-.11s10.56,1.52,10.79,3.15c.01.12.03.25.07.4.07.41.16.94.27,1.54.05.24.1.5.15.76,0,.01.01.03.01.04.06.32.12.66.19,1.01.08.45.17.91.25,1.38.07.42.15.84.21,1.25.07.42.13.83.18,1.24.03.2.06.4.08.6.05.39.09.77.12,1.13.01.14.02.27.03.4s.03.25.04.37.03.24.04.35c.05.32.11.61.18.87.05.18.11.34.17.49.08.2.18.36.29.51.49.62,1.3.81,2.64.77v.08c0,.23.03.86-.08,1.69-.03.19-.07.4-.11.62-.06.28-.13.58-.22.88-.06.17-.12.34-.18.51,0,0-.01,0-.01.01-.25.65-.6,1.3-1.08,1.9-.06.07-.12.15-.18.22-.11.12-.23.24-.35.36-.13.12-.26.24-.4.36-.11.09-.22.17-.34.25-.02.01-.04.03-.06.04-.11.08-.24.16-.37.24-.16.09-.34.19-.52.27-.12.06-.24.12-.35.18-.11.06-.21.11-.3.18-.22.13-.43.27-.61.43-.07.06-.14.12-.2.19-.08.06-.16.14-.23.22-.5.54-.81,1.16-.95,1.82-.05.19-.08.38-.08.58-.08,1.11.27,2.32.98,3.51.16.27.33.54.54.81.09.14.2.27.31.41.53.67,1.18,1.32,1.93,1.93,1.46,1.2,2.62,2.75,3.7,4.12.15.2.3.39.45.58.15.18.29.36.45.54.21.26.43.51.65.74.14.15.28.29.42.42h0c.22.2.44.38.66.51.08.05.15.1.22.13.09.05.17.09.25.12.07.03.13.06.2.07.06.03.11.04.17.05.08.03.16.04.24.05.08.01.16.02.24.02.27,0,.55-.05.84-.16.19-.07.37-.16.56-.28.15-.1.3-.2.45-.33.16-.13.31-.27.47-.42.08-.07.15-.15.22-.23.07-.07.14-.14.19-.21.14-.14.26-.28.36-.42.15-.17.28-.34.41-.52h0c.35-.49.65-1.01.94-1.52.09-.18.19-.35.28-.53.27-.52.52-1.05.76-1.57.01-.02.02-.04.03-.06.11-.26.23-.52.34-.77.34-.75.67-1.47,1.04-2.11.07-.12.14-.24.21-.36s.15-.23.22-.34h0c.03-.06.07-.11.11-.17.02-.03.05-.07.08-.1.09-.13.18-.25.28-.36.09-.1.17-.19.26-.28.7-.71,1.57-1.16,2.72-1.2.38-.01.73-.02,1.04,0,.12,0,.23,0,.33.01.16,0,.31.01.44.03.14.01.28.03.41.05.02,0,.04,0,.05,0,.14.02.27.05.4.08.28.06.5.15.69.25.06.03.11.06.15.09.07.05.14.1.19.15l.09.09c.06.06.1.12.15.19.15.23.21.49.25.75.03.2.04.41.06.61,0,.07.01.13.02.2,0,.04,0,.08.01.12.01.1.03.24.05.43.01.06.01.13.02.2.02.29.04.67.06,1.1.01.15.01.3.02.46,0,.15.01.3.01.46.12,3.46.14,9.2-.28,11.36Z"/>
      <path id="posavina-canton" class="cls-1" d="M274.74,50.81v.02c-.17.49-.33.99-.5,1.5-.36,1.07-.56,1.59-.73,1.82-.04.05-.07.09-.1.12-.35.29-.66-.44-2.06.42-2.17,1.34-1.98.42-2.19-1.19-.22-1.59.72-3.21-.23-4.3-.15-.18-.33-.3-.54-.4h-.01c-1.13-.53-3-.17-4.12-.55-.09-.03-.17-.07-.24-.11-.03-.01-.06-.03-.08-.05-.05-.04-.09-.08-.13-.12-.04-.06-.07-.12-.09-.19-.19-.63.61-1.61.54-2.22-.09-.81-2.3-.87-4.71-3.7-2.4-2.84-2.54-.45-6.76-1.03-4.22-.58-5.67-3.65-8.39-6.89-1.79-2.13-1.87-5.2-1.71-7.06.14.09.26.17.39.23v.02c1.27.98,3.61,1.56,5.2,1.44.05-1.35-.74-3.05-.53-4.38.43-.2,1.49-.68,1.99-.5.75.18,2,.65,2.71.14.36-.22,1.38-.89,1.82-.86l.66.32c.98,1.29,1.05,3.79,2.81,4.36l.82-.47c.47-.76.38-1.98,1.17-2.54l.59-.06c1.83,1.11,3.58,7.59,5.29,8.89,2.29,1.25,5.02-.49,4.99,3.46-.01.47.43.97.69,1.33.25.31-.08,1.31-.12,1.66-.78.52-2.34,1.7-2.56,2.68l.95,3.56c1.06,1.25,3.66,3.98,5.16,4.65h.02ZM240.48,24.92s-.05-.06-.05-.06c-5.39-6.6-6.71-3.01-12.68-5.29-1.23-.93-4.59-3.43-6.12-3.72l-2.17.46-.95,1.2c-.24,1.36-.07,3.24-.86,4.44-1.35,1.1-3.18,1.43-4.93,1.32.26,1.14.66,2.43,1.23,3.16,1.19,1.55.69,2.38,1.98,2.75,1.29.38,2.13-.27,3.24,1.53,1.1,1.8.18,2.78,2.85,4.47,2.67,1.7,4.26,2.48,5.84,2,.2-.06.41-.11.62-.17.41-.1.84-.21,1.23-.35.2-.07.39-.15.57-.25.72-.38,1.23-1.01,1.23-2.21,0-2.41.76-2.24,2.73-2.9,1.35-.45,2.92-.83,3.94-1.28.18-.08.35-.17.49-.25.14-.09.26-.18.35-.28.05-.04.09-.09.12-.14.51-.77.58-2.95.94-3.72.09-.21.24-.45.41-.71h-.01Z"/>
    </g>
  </g>
</svg>