<svg width="343" height="333" viewBox="0 0 343 333" fill="none" xmlns="http://www.w3.org/2000/svg">
<path id="region-1" d="M100.787 99.2211C98.4965 103.369 95.169 103.802 88.2405 101.512C81.312 99.2211 69.8025 94.9705 69.415 97.4775C69.1301 99.3464 68.9136 100.52 71.0902 102.742C70.5432 103.278 70.0076 103.939 69.8025 104.588C69.3353 106.161 69.5518 106.56 68.4578 107.209C67.3638 107.87 66.8282 107.904 66.3838 108.668C65.9508 109.432 65.6545 109.169 64.0591 109.648C62.4637 110.115 61.8484 110.115 60.857 110.525C59.8655 110.924 60.2758 111.175 58.8171 111.209C57.3699 111.243 57.5522 110.56 55.8087 111.209C54.0538 111.87 54.3843 112.189 53.5524 112.007C52.7091 111.825 50.4756 111.517 49.6323 111.893C48.789 112.269 48.3446 112.919 47.923 113.762C47.5127 114.594 47.8432 115.141 46.9999 115.323C46.1681 115.505 45.6666 114.947 44.5157 114.981C44.1966 114.993 44.1055 114.981 44.0827 114.981C44.1055 114.981 44.1282 115.027 43.832 115.163C43.6838 115.038 43.5585 114.913 43.4673 114.833L43.1596 115.426C43.1026 115.437 43.0457 115.46 42.9773 115.483L42.7836 114.571C41.5301 113.135 39.3877 111.859 37.4276 111.984L37.1086 112.372L37.1541 111.414C37.7581 110.833 38.6926 110.377 39.0002 109.523C39.3421 106.742 37.063 101.831 36.2311 99.2325C35.8551 97.3978 35.593 94.6856 34.1799 93.3182L32.311 92.9991L29.1203 94.4235L27.297 94.207L25.4965 92.2584L26.1916 90.2869L27.6388 88.4067L28.0263 86.7885C28.1402 86.7315 28.824 86.401 28.8924 86.2985C28.6644 84.931 28.2884 83.0621 27.4451 81.9226C25.9637 80.9767 23.5592 81.4212 22.2373 80.1335L21.0636 78.4014C20.8813 77.3074 20.3571 74.732 19.4568 73.9799L18.7845 73.9115C18.454 74.1736 17.7361 74.4813 17.3144 74.5269C15.7874 73.4101 16.6079 70.8233 15.1835 69.6268L14.0895 69.5584C13.3944 70.2307 13.0525 71.507 12.346 72.168C11.8788 72.4529 10.5569 72.5326 10.0213 72.5554C9.53127 72.7833 8.4259 72.9884 7.89031 73.0454C6.97866 72.3047 6.53423 70.7549 5.88468 69.8205L3.82208 68.396C2.28368 66.1055 -0.223346 62.7324 0.015961 59.838L1.30366 58.1286C2.16973 57.9235 3.84488 57.2967 4.63117 56.8523L5.05281 54.6644C4.75652 53.3881 3.62836 51.1089 2.81927 50.0833L1.61134 47.5877C1.56576 46.8812 1.12133 44.1804 1.58855 43.5651C2.10135 41.4569 4.67675 38.5624 4.52861 36.2605C1.99879 29.7308 4.85908 28.6824 5.96445 22.8707C5.99864 19.8053 4.60838 13.0933 7.61681 10.9737H7.62821L9.57685 9.18462C12.5055 8.27297 19.6619 8.4439 22.7387 8.62623C24.6532 8.15901 26.4879 7.80575 27.5363 9.91393C27.6388 10.7116 27.1716 11.7258 27.1146 12.5007C27.5135 13.0705 29.1772 13.4124 29.804 13.4921C32.0261 14.7343 33.1771 19.2697 34.1115 21.4463C34.8636 22.9619 42.3733 30.1525 43.6838 31.5199C46.715 33.4344 51.2391 36.1807 54.8971 34.6993C54.9996 34.3005 55.1706 33.6737 55.3643 32.9672C55.7062 33.3318 56.3557 34.1865 56.105 35.064C55.7745 36.2149 54.1905 37.2861 51.7177 38.0724C49.2449 38.8473 47.7292 40.3287 47.9458 42.4027C48.1623 44.4653 49.9514 47.0521 50.7149 47.6447C51.4898 48.2373 53.7233 49.1717 59.5237 49.525C65.3354 49.8782 82.5541 51.485 86.5882 53.1488C90.6222 54.8125 97.357 61.1484 98.1661 65.399C98.9866 69.6495 98.337 73.4443 98.6105 74.6066C98.884 75.769 99.1233 76.0197 99.1233 76.0197C99.1233 76.0197 100.787 74.9713 101.391 75.8601C101.984 76.749 103.078 95.0731 100.787 99.2211Z" fill="#EDEDED"/>
<path id="region-path-1" d="M159.27 202.863C159.327 204.333 159.441 204.607 158.13 206.738C156.82 208.857 157.8 207.114 155.726 208.698C153.652 210.282 154.37 209.245 152.672 209.678C150.985 210.111 151.635 209.951 149.948 210.339C148.25 210.715 148.467 210.715 146.336 211.535C144.193 212.356 145.196 212.082 144.273 212.572C143.339 213.062 142.849 213.165 141.948 213.53C141.037 213.883 140.775 213.985 139.475 214.532C138.165 215.079 138.872 214.646 137.721 214.476C136.581 214.316 136.741 214.042 135.327 213.165C133.903 212.299 135.054 212.789 133.413 211.478C131.783 210.168 133.413 211.478 132.49 211.638C131.556 211.809 131.613 212.401 130.963 212.789C130.302 213.165 129.265 213.222 128.012 213.393C126.758 213.552 126.108 213.769 125.071 213.94C124.034 214.099 123.328 214.646 122.45 214.931C121.573 215.228 118.325 215.786 118.325 215.786C118.325 215.786 118.018 215.558 117.516 215.33H117.505C112.263 210.214 102.178 198.898 97.3802 194.362C96.1267 193.211 86.5202 186.271 86.3493 184.539C85.6542 182.682 85.4263 179.924 84.6172 178.124C82.6343 176.562 79.4208 172.927 78.1331 170.762C76.23 168.984 72.5379 164.905 71.3299 162.614V162.569C69.3129 159.173 67.2845 158.033 63.6037 156.939C63.1251 156.199 62.6123 154.569 62.4984 153.703L61.3588 151.823C60.3446 151.127 58.3618 151.823 57.245 151.561C52.4133 149.202 51.7523 143.492 49.1997 139.413C48.0146 138.159 44.6985 134.695 43.9464 133.191C43.0233 130.182 41.314 125.385 41.3824 122.217C41.4052 121.328 42.1573 119.676 42.5333 118.878C42.7954 118.16 43.0803 116.496 43.0575 115.71L44.7099 115.984C44.5047 115.801 44.1401 115.448 43.8324 115.152C44.1287 115.015 44.1059 114.981 44.0831 114.969C44.1059 114.969 44.1971 114.992 44.5161 114.969C45.6671 114.935 46.1685 115.494 47.0004 115.311C47.8437 115.129 47.5132 114.582 47.9234 113.75C48.3451 112.907 48.7895 112.257 49.6328 111.881C50.476 111.505 52.7096 111.813 53.5528 111.995C54.3847 112.177 54.0542 111.858 55.8092 111.197C57.5527 110.548 57.3704 111.232 58.8176 111.197C60.2762 111.163 59.866 110.912 60.8574 110.514C61.8488 110.103 62.4642 110.103 64.0596 109.636C65.6549 109.158 65.9512 109.42 66.3843 108.656C66.8287 107.893 67.3643 107.858 68.4583 107.198C69.5522 106.548 69.3357 106.149 69.8029 104.577C70.0081 103.927 70.5436 103.266 71.0906 102.73C71.8199 103.483 72.8342 104.36 74.2244 105.431C79.6715 109.625 85.8251 115.471 87.6826 116.154C89.5287 116.85 91.0899 116.314 91.4773 116.747C91.8648 117.18 93.0271 121.772 94.7706 123.06C96.5142 124.336 98.3716 124.747 99.7505 124.781C101.129 124.815 101.574 126.957 104.73 128.747C107.898 130.524 113.938 134.433 115.499 134.684C117.06 134.946 116.377 136.142 117.869 137.419C119.351 138.684 120.445 139.379 121.79 139.709C123.134 140.04 122.268 141.635 122.77 143.994C123.282 146.364 122.2 148.541 127.191 149.145C131.145 149.623 133.561 150.09 134.393 150.273C134.792 150.888 135.065 151.333 135.111 151.481C135.327 152.187 135.977 153.008 137.835 155.948C139.692 158.899 138.108 156.221 139.909 159.48C141.709 162.751 140.512 161.349 140.946 163.64C141.379 165.93 145.561 169.406 147.122 169.588C148.695 169.771 148.034 169.657 150.005 170.306C151.965 170.944 150.769 170.865 151.783 172.027C152.797 173.189 152.25 172.608 152.546 174.169C152.831 175.731 152.945 175.047 154.073 176.278C154.426 176.665 154.575 176.904 154.597 177.03C154.654 177.326 154.119 177.201 153.777 177.371C153.276 177.622 153.458 177.337 151.566 176.46C149.675 175.594 150.256 176.391 148.546 176.46C146.837 176.54 147.635 176.756 146.757 177.406C145.891 178.067 146.541 179.149 146.393 180.391C146.244 181.622 146.404 186.157 146.78 187.297C147.168 188.448 146.677 188.505 147.259 189.758C147.84 191.012 147.874 189.702 149.732 189.975C151.578 190.249 150.165 190.078 152.125 191.069C154.096 192.049 152.786 191.662 153.823 192.756C154.86 193.849 154.256 193.576 154.86 195.103C155.452 196.63 155.395 196.63 156.33 197.941C157.253 199.251 156.877 198.374 158.951 200.117C159.304 200.413 159.543 200.653 159.703 200.835C160.466 201.758 159.235 201.621 159.27 202.852V202.863Z" fill="#EDEDED"/>
<path id="region-path-2" d="M268.381 48.7959L266.512 54.4025C266.478 54.2544 266.456 54.1176 266.444 54.0036C266.216 52.3741 260.234 50.8471 255.653 50.8471C251.071 50.8471 248.667 53.4567 244.211 50.961C239.756 48.454 250.958 46.4826 240.417 45.5595C229.876 44.6365 230.719 49.3656 229.238 54.0036C227.768 58.653 225.819 59.2114 222.469 60.5903C219.118 61.9692 209.751 58.9949 207.609 63.2113C205.466 67.4276 211.563 70.7779 218.48 73.4673C225.386 76.1567 233.83 79.5069 235.027 83.5866C236.223 87.6776 232.736 87.8713 226.411 88.1562C226.229 88.1676 226.047 88.1676 225.864 88.179C219.711 88.3955 213.58 87.4953 212.657 87.0622C211.711 86.6292 210.993 84.521 209.968 82.0482C208.942 79.5753 204.726 71.211 202.617 70.2082C200.509 69.2053 193.968 66.3337 189.319 73.4331C184.669 80.5326 188.874 87.3243 188.874 87.3243C195.997 93.5805 193.968 97.5006 193.398 100.999C192.92 103.95 181.604 110.286 178.174 112.144C177.559 112.474 177.194 112.668 177.194 112.668C173.445 112.953 169.525 113.91 162.619 113.979C155.702 114.047 156.431 113.762 154.574 111.118C152.716 108.486 149.81 104.6 148.215 104.383C146.608 104.156 137.594 104.383 135.053 103.723C132.5 103.073 134.176 101.546 129.298 101.956C124.432 102.366 125.743 105.398 126.028 115.141C126.324 124.896 131.851 130.855 133.948 133.818C136.045 136.793 136.648 138.707 136.842 140.599C137.036 142.49 134.723 150.353 134.723 150.353C134.723 150.353 134.609 150.33 134.392 150.285C133.56 150.103 131.144 149.635 127.19 149.157C122.199 148.553 123.281 146.376 122.769 144.006C122.267 141.647 123.133 140.052 121.789 139.721C120.444 139.391 119.35 138.696 117.869 137.431C116.376 136.154 117.059 134.958 115.498 134.696C113.937 134.445 107.897 130.536 104.729 128.759C101.573 126.97 101.128 124.827 99.7496 124.793C98.3707 124.759 96.5133 124.349 94.7697 123.072C93.0262 121.785 91.8639 117.192 91.4764 116.759C91.089 116.326 89.5278 116.862 87.6817 116.167C85.8242 115.483 79.6706 109.637 74.2235 105.443C72.8332 104.372 71.819 103.495 71.0897 102.743C68.9132 100.52 69.1297 99.3467 69.4146 97.4778C69.802 94.9708 81.3116 99.2213 88.2401 101.512C95.1686 103.802 98.4961 103.369 100.787 99.2213C103.077 95.0733 101.983 76.7492 101.391 75.8604C100.787 74.9715 99.1228 76.0199 99.1228 76.0199C99.1228 76.0199 98.8835 75.7692 98.61 74.6069C98.3365 73.4445 98.9861 69.6498 98.1656 65.3992C97.3565 61.1487 90.6217 54.8127 86.5877 53.149C82.5537 51.4852 65.3349 49.8784 59.5232 49.5252C53.7229 49.1719 51.4893 48.2375 50.7144 47.6449C49.9509 47.0523 48.1618 44.4655 47.9453 42.4029C47.7288 40.329 49.2444 38.8475 51.7172 38.0726C54.1901 37.2863 55.7741 36.2151 56.1045 35.0642C56.3552 34.1867 55.7057 33.3321 55.3638 32.9674C55.7171 31.6683 56.1387 30.1299 56.3438 29.3892C56.7085 28.6941 58.3495 25.7312 58.5432 25.0361C58.7711 24.1244 58.5774 22.9393 58.5204 22.0504C58.7597 21.4921 59.3979 20.5804 59.9904 20.3411C60.7539 20.1132 62.714 19.5434 63.2496 18.9167C64.2752 17.7201 66.6226 12.1249 67.3178 10.6093L71.4544 7.77178L76.5596 7.94272C77.8017 8.13644 95.5788 14.3015 96.3081 12.8884L97.4021 11.9084C97.5275 11.4184 97.5389 10.4156 97.4705 9.91415L97.9719 8.42133C98.5872 7.56666 99.8977 7.16782 100.695 6.52967L101.185 5.13941C102.291 4.54684 103.271 3.16797 103.795 2.03981L106.199 0L106.929 0.717921C107.259 1.94864 107.966 4.1138 107.715 5.39011L108.228 6.09663L110.04 5.89151C109.937 5.44709 109.641 4.59242 109.447 4.18218L110.746 4.66079C111.145 5.23057 112.091 6.33594 112.741 6.63223L113.584 5.02545C114.085 6.10803 114.142 7.45271 113.584 8.52389C114.188 7.96551 115.453 7.32736 116.045 6.74618L117.755 10.5067C120.592 13.1505 125.788 15.384 129.298 16.9566C129.834 16.2159 133.606 16.2273 134.426 16.1247C134.7 15.874 136.261 12.2844 136.478 11.8628C137.492 12.5465 140.363 14.518 141.537 14.8143C142.87 15.5892 145.127 17.3669 146.449 18.0848C147.52 18.1418 149.981 17.3213 150.996 16.9566C151.246 16.4666 151.349 15.6689 151.805 15.2815C152.511 15.6119 153.104 16.478 153.104 17.2757C153.013 17.7087 152.488 18.4267 152.192 18.7457C153.548 19.6232 155.269 18.495 156.454 17.8341C156.249 18.4722 155.634 20.74 155.2 21.23C155.44 20.9451 159.838 20.4892 160.272 20.4095C160.91 20.4892 162.539 20.6944 163.155 20.4892C165.502 19.4636 167.622 15.7031 170.106 14.894C174.482 14.3698 177.844 18.4608 180.134 21.6516V21.6288C181.798 23.5775 184.088 27.8736 187.165 27.3266C188.35 26.7226 190.846 25.9135 192.179 25.7882C194.925 24.5917 198.253 17.9936 201.034 16.8769C204.464 16.3527 207.461 22.2442 210.617 22.9393C211.278 23.1102 211.985 23.2356 212.714 23.2698C212.976 24.4093 213.375 25.697 213.945 26.4263C215.141 27.9761 214.64 28.808 215.928 29.1841C217.215 29.5601 218.058 28.9106 219.164 30.7111C220.269 32.5116 219.346 33.4916 222.013 35.1782C224.691 36.8761 226.275 37.6624 227.859 37.1838C229.443 36.7052 231.505 36.6026 231.505 34.1981C231.505 31.7937 232.269 31.9646 234.24 31.3037C236.2 30.6541 238.639 30.1299 239.14 29.355C239.642 28.5801 239.721 26.4036 240.075 25.6287C240.166 25.4235 240.314 25.1842 240.485 24.9221C240.952 25.5147 241.921 26.4036 242.684 26.8822C242.525 28.7396 242.605 31.8051 244.394 33.936C247.117 37.1838 248.564 40.2492 252.781 40.8304C257.009 41.4115 257.145 39.0185 259.55 41.856C261.954 44.6935 264.165 44.7504 264.256 45.5595C264.347 46.3686 262.923 47.8045 264.256 48.2489C265.373 48.6249 267.253 48.2717 268.381 48.7959Z" fill="#EDEDED"/>
<path id="region-path-3" d="M286.58 55.109C286.33 56.4081 285.817 55.5877 284.654 56.0891C283.492 56.6019 284.039 56.6816 283.093 57.3654C282.147 58.0605 282.113 57.9807 281.771 58.9038C281.43 59.8154 281.418 59.918 281.019 61.878C280.62 63.8381 280.404 62.6073 279.595 63.0746C278.797 63.5532 279.23 63.2569 277.669 64.1343C276.108 65.0004 276.256 64.1002 275.094 64.0546C273.931 64.0204 273.965 64.5674 273.418 64.932C272.871 65.2967 272.142 65.6614 271.777 66.3907C271.675 66.6072 271.527 66.8921 271.367 67.1884V67.1086C268.792 67.1884 268.211 66.4249 267.971 63.3481C267.743 60.4764 266.82 56.2942 266.513 54.4025L268.382 48.7959C268.598 48.8985 268.78 49.0238 268.929 49.1947C269.874 50.2887 268.94 51.9069 269.156 53.5023C269.362 55.109 269.179 56.0321 271.344 54.6874C273.521 53.3427 273.054 55.8953 274.239 52.3285C274.41 51.8157 274.569 51.3143 274.74 50.8243C277.407 53.2516 282.66 52.602 285.885 52.4767C286.056 52.4881 286.295 52.4767 286.58 52.4767V52.8983C286.614 54.1974 286.842 53.7986 286.58 55.109Z" fill="#EDEDED"/>
<path id="region-path-4" d="M202.732 229.883C204.054 235.889 206.23 234.464 205.364 239.923C204.487 245.381 206.128 246.578 205.581 250.726C205.034 254.874 206.355 254.042 203.86 256.515C201.364 258.976 199.381 258.361 199.974 261.039C200.555 263.706 199.837 264.196 202.435 264.663C205.034 265.13 206.15 265.723 205.763 268.514C205.375 271.295 203.358 276.514 202.162 279.352C200.965 282.189 201.957 285.255 203.86 290.804C205.763 296.354 204.304 298.439 210.412 301.391C216.52 304.331 213.717 303.818 218.56 309.037C223.403 314.268 222.982 312.729 225.796 316.011C228.622 319.293 229.295 321.47 231.802 322.119C233.386 322.53 233.534 327.418 233.431 330.951L233.283 330.86C232.77 330.096 231.357 327.806 230.491 327.418C227.403 328.022 223.039 325.823 220.44 324.353C217.033 322.051 203.564 312.934 200.327 310.929C196.498 308.137 194.504 303.032 189.262 302.382C188.271 302.234 186.094 298.177 185.547 297.436C185.08 295.169 186.174 292.445 184.202 290.633L183.405 290.667C183.097 290.975 182.402 291.477 181.992 291.636C178.995 291.477 175.599 288.559 172.568 289.95C171.85 290.576 170.733 292.092 170.266 292.912C170.232 292.855 161.799 287.693 161.753 287.648C163.474 287.42 165.514 288.913 167.155 289.209C166.517 288.377 164.819 287.226 163.884 286.77L168.625 285.779L171.098 283.933L170.801 280.617H170.79V280.582H170.779L168.101 274.212L165.423 271.044V271.033C165.457 270.965 165.32 270.794 165.058 270.554C166.038 269.597 166.938 268.72 167.474 268.23C169.081 266.782 168.648 265.837 169.081 264.594C169.514 263.364 170.824 260.743 170.824 260.743C170.824 260.743 171.12 259.728 171.246 257.267C171.371 254.806 170.972 256.447 170.756 255.284C170.539 254.122 170.209 254.19 169.365 253.233C168.534 252.287 167.474 251.501 165.73 250.339C163.987 249.176 165.149 249.176 163.839 244.743C162.528 240.299 165.183 243.684 166.175 243.285C167.155 242.886 168.499 243.581 170.243 243.649C171.986 243.718 172.716 244.162 176.499 245.028C180.282 245.906 178.459 245.108 178.972 244.299C179.485 243.501 178.904 242.772 178.459 241.393C178.026 240.014 176.567 237.758 175.553 235.946C174.539 234.134 175.12 229.245 174.311 228.733C173.513 228.22 172.864 227.935 171.508 227.422C170.163 226.909 170.243 226.488 168.556 224.801C166.87 223.114 167.405 223.422 166.528 222.043C165.662 220.664 166.027 221.029 165.297 219.935C164.568 218.841 163.337 218.34 162.243 217.394C161.149 216.448 161.149 217.531 158.893 215.422C156.637 213.314 159.474 214.408 161.001 213.588C162.528 212.767 162.095 213.531 165.776 212.938C169.457 212.334 166.243 212.368 166.175 211.206C166.095 210.044 166.027 210.408 165.776 208.608C165.525 206.807 165.445 206.693 165.229 205.246C165.001 203.788 164.374 203.127 164.203 201.896C164.032 200.665 162.95 201.041 161.012 200.882C160.602 200.848 160.169 200.836 159.725 200.848C159.565 200.665 159.326 200.426 158.973 200.13C156.899 198.386 157.275 199.264 156.352 197.953C155.417 196.643 155.474 196.643 154.882 195.116C154.278 193.589 154.882 193.862 153.845 192.768C152.808 191.674 154.118 192.062 152.147 191.082C150.187 190.09 151.6 190.261 149.754 189.988C147.896 189.714 147.862 191.025 147.281 189.771C146.7 188.518 147.19 188.461 146.802 187.31C146.426 186.17 146.267 181.635 146.415 180.404C146.563 179.162 145.913 178.079 146.779 177.418C147.657 176.769 146.859 176.552 148.569 176.472C150.278 176.404 149.697 175.606 151.588 176.472C153.48 177.35 153.298 177.635 153.799 177.384C154.141 177.213 154.677 177.338 154.62 177.054C160.101 179.025 166.448 178.022 167.952 178.432C169.571 178.888 163.964 171.903 170.642 176.86C177.32 181.817 174.334 183.469 180.225 181.099C186.117 178.729 192.225 175.515 192.988 178.353C193.752 181.202 187.712 182.899 193.809 184.21C199.689 185.486 196.088 184.301 201.592 185.486C201.569 186.307 201.957 186.808 202.378 188.506C202.937 190.728 202.868 191.606 203.415 193.463C203.962 195.309 203.301 195.754 205.045 196.95C206.789 198.147 207.848 198.056 209.774 198.158C211.7 198.261 212.03 197.383 214.104 199.138C216.178 200.882 216.817 201.018 217.409 202.591C218.013 204.164 217.079 204.779 217.592 205.793C218.116 206.796 216.281 206.876 219.666 207.753C223.05 208.631 221.933 209.28 223.426 209.804C224.919 210.329 226.902 211.742 227.483 209.804C228.064 207.867 225.671 205.793 228.292 206.112C230.902 206.443 230.286 208.266 232.326 208.517C232.862 208.585 233.637 208.779 234.491 209.018C233.785 210.329 232.713 212.961 233.454 216.106C234.503 220.619 234.503 226.602 235.05 226.989C235.597 227.376 226.093 227.365 215.244 226.989C204.395 226.613 201.421 223.889 202.743 229.883H202.732Z" fill="#EDEDED"/>
<path id="region-path-5" d="M176.477 245.028C172.693 244.162 171.964 243.717 170.221 243.649C168.477 243.58 167.132 242.885 166.152 243.284C165.161 243.683 162.506 240.299 163.816 244.743C165.127 249.176 163.964 249.176 165.708 250.338C167.452 251.5 168.511 252.287 169.343 253.233C170.186 254.19 170.517 254.121 170.733 255.284C170.95 256.446 171.349 254.805 171.223 257.267C171.098 259.728 170.802 260.742 170.802 260.742C170.802 260.742 169.491 263.363 169.058 264.594C168.625 265.836 169.058 266.782 167.452 268.229C166.916 268.719 166.016 269.597 165.036 270.554C162.95 268.685 152.934 262.349 152.478 261.962C149.64 260.378 149.31 256.423 148.033 253.779C147.521 253.176 146.005 252.184 145.333 251.785L141.755 248.435L138.347 243.239L136.376 237.21L138.028 227.057L136.626 223.923L133.914 222.077L125.413 220.755C123.863 219.9 119.431 217.53 118.371 216.129H118.348C118.086 215.889 117.812 215.639 117.516 215.331C118.018 215.559 118.325 215.787 118.325 215.787C118.325 215.787 121.573 215.228 122.45 214.932C123.328 214.647 124.034 214.1 125.071 213.941C126.108 213.77 126.758 213.553 128.011 213.394C129.265 213.223 130.302 213.166 130.963 212.79C131.612 212.402 131.555 211.81 132.49 211.639C133.413 211.479 131.783 210.169 133.413 211.479C135.054 212.79 133.903 212.3 135.327 213.166C136.74 214.043 136.581 214.317 137.72 214.476C138.871 214.647 138.165 215.08 139.475 214.533C140.774 213.986 141.037 213.884 141.948 213.53C142.848 213.166 143.338 213.063 144.273 212.573C145.196 212.083 144.193 212.357 146.336 211.536C148.467 210.716 148.25 210.716 149.948 210.34C151.634 209.952 150.985 210.112 152.671 209.679C154.369 209.246 153.651 210.283 155.725 208.699C157.799 207.115 156.819 208.858 158.13 206.739C159.44 204.608 159.326 204.334 159.269 202.864C159.235 201.633 160.466 201.77 159.703 200.847C160.147 200.836 160.58 200.847 160.99 200.881C162.927 201.041 164.01 200.665 164.181 201.895C164.352 203.126 164.979 203.787 165.207 205.246C165.423 206.693 165.503 206.807 165.754 208.607C166.004 210.408 166.073 210.043 166.152 211.206C166.221 212.368 169.434 212.334 165.754 212.938C162.073 213.53 162.506 212.767 160.979 213.587C159.452 214.408 156.614 213.314 158.871 215.422C161.127 217.53 161.127 216.448 162.221 217.393C163.315 218.339 164.546 218.841 165.275 219.935C166.004 221.029 165.64 220.664 166.506 222.043C167.383 223.422 166.848 223.114 168.534 224.801C170.221 226.487 170.141 226.909 171.486 227.422C172.842 227.934 173.491 228.219 174.289 228.732C175.098 229.245 174.517 234.134 175.531 235.945C176.545 237.757 178.004 240.014 178.437 241.393C178.881 242.771 179.462 243.501 178.95 244.298C178.437 245.107 180.26 245.905 176.477 245.028Z" fill="#EDEDED"/>
<path id="region-path-6" d="M215.222 172.188C214.96 172.951 215.37 173.669 215.108 174.729C214.846 175.789 215.279 175.561 214.299 176.985C213.319 178.398 213.558 178.079 212.566 178.729C211.575 179.39 210.151 179.492 208.521 180.472C206.88 181.464 207.758 180.803 206.003 181.897C204.259 182.991 204.259 183.287 203.393 183.686C202.516 184.073 202.117 183.116 201.718 184.62C201.627 184.973 201.581 185.247 201.57 185.486C196.066 184.301 199.667 185.486 193.787 184.21C187.69 182.899 193.73 181.201 192.966 178.353C192.203 175.515 186.095 178.729 180.203 181.099C174.312 183.469 177.297 181.817 170.619 176.86C163.942 171.903 169.548 178.888 167.93 178.432C166.426 178.022 160.078 179.025 154.597 177.053C154.574 176.917 154.426 176.677 154.073 176.29C152.945 175.059 152.831 175.743 152.546 174.182C152.25 172.621 152.797 173.202 151.782 172.039C150.768 170.877 151.965 170.957 150.005 170.319C148.033 169.669 148.694 169.783 147.122 169.601C145.56 169.418 141.378 165.943 140.945 163.652C140.512 161.362 141.709 162.763 139.908 159.493C138.108 156.234 139.692 158.912 137.834 155.96C135.977 153.02 135.327 152.2 135.111 151.493C135.065 151.345 134.792 150.901 134.393 150.285C134.609 150.331 134.723 150.354 134.723 150.354C134.723 150.354 137.037 142.491 136.843 140.599C136.649 138.707 136.045 136.793 133.948 133.819C131.852 130.856 126.325 124.896 126.028 115.141C125.744 105.398 124.433 102.367 129.299 101.957C134.176 101.546 132.501 103.073 135.054 103.723C137.595 104.384 146.609 104.156 148.216 104.384C149.811 104.6 152.717 108.486 154.574 111.119C156.432 113.762 155.703 114.047 162.62 113.979C169.525 113.911 173.445 112.953 177.195 112.668C177.195 112.668 177.559 112.475 178.175 112.144C178.744 113.705 179.12 115.164 178.767 115.688C177.89 116.999 178.961 117.295 180.226 120.964C181.502 124.645 183.291 124.999 183.143 127.904C182.995 130.81 181.981 133.146 181.981 137.066C181.981 140.986 184.305 138.092 190.265 140.462C196.225 142.833 190.413 143.038 190.265 147.254C190.129 151.47 193.638 147.55 198.322 150.513C203.006 153.476 199.382 151.687 199.803 154.354C200.225 157.02 200.305 154.969 200.738 156.849C201.182 158.741 202.345 158.741 205.342 160.405C208.339 162.057 206.276 162.239 207.609 164.712C208.851 167.014 210.515 168.347 213.011 169.76C212.726 170.091 212.566 170.307 212.566 170.307C212.566 170.307 215.484 171.424 215.222 172.188Z" fill="#EDEDED"/>
<path id="region-path-7" d="M253.807 196.95L252.212 200.414L252.086 203.046C252.006 202.978 251.961 202.944 251.961 202.944C251.961 202.944 250.639 202.192 250.058 201.827C249.477 201.462 248.975 200.733 247.368 199.639C245.773 198.557 245.329 198.625 243.004 197.531C240.679 196.437 240.463 196.733 238.355 196.517C236.246 196.3 237.545 196.95 236.828 198.465C236.098 199.992 236.748 200.152 236.531 201.679C236.315 203.206 236.098 204.733 235.426 206.043C235.095 206.682 234.993 207.525 234.981 208.209C234.89 208.334 234.708 208.619 234.48 209.018C233.625 208.778 232.851 208.585 232.315 208.516C230.275 208.266 230.89 206.442 228.281 206.112C225.66 205.793 228.053 207.867 227.472 209.804C226.891 211.741 224.908 210.328 223.415 209.804C221.922 209.28 223.039 208.63 219.654 207.753C216.27 206.875 218.105 206.796 217.58 205.793C217.068 204.779 218.002 204.163 217.398 202.591C216.806 201.018 216.167 200.881 214.093 199.138C212.019 197.383 211.689 198.26 209.763 198.158C207.837 198.055 206.777 198.146 205.034 196.95C203.29 195.753 203.951 195.309 203.404 193.463C202.857 191.605 202.926 190.728 202.367 188.506C201.946 186.808 201.558 186.306 201.581 185.486C201.592 185.247 201.638 184.973 201.729 184.62C202.128 183.116 202.527 184.073 203.404 183.685C204.27 183.286 204.27 182.99 206.014 181.896C207.769 180.802 206.891 181.463 208.532 180.472C210.162 179.492 211.586 179.389 212.578 178.728C213.569 178.079 213.33 178.398 214.31 176.985C215.29 175.56 214.857 175.788 215.119 174.728C215.381 173.669 214.971 172.951 215.233 172.187C215.495 171.424 212.578 170.307 212.578 170.307C212.578 170.307 212.737 170.09 213.022 169.76C213.489 169.19 214.298 168.301 215.199 167.652C216.635 166.615 215.837 165.851 215.233 165.304C214.629 164.769 215.62 162.911 217.865 160.279C220.11 157.646 218.891 159.31 220.52 159.39C222.15 159.47 222.059 158.98 224.349 158.98C226.64 158.98 226.97 158.763 228.281 158.216C229.591 157.669 229.363 156.906 229.591 155.595C229.808 154.285 229.261 153.521 230.241 150.433C231.221 147.333 231.586 150.08 232.201 149.92C232.828 149.772 233.625 149.92 235.016 149.704C236.406 149.487 235.483 149.054 237.545 146.764C239.619 144.473 238.206 145.67 240.166 145.123C242.138 144.576 241.374 145.123 242.742 145.054C244.109 144.986 243.437 145.339 245.933 146.524C248.417 147.698 245.933 146.524 248.246 149.385C250.559 152.234 248.895 149.818 250.867 151.675C251.22 152.006 251.516 152.279 251.779 152.507C251.311 152.45 251.197 152.587 251.083 153.635C250.867 155.652 250.206 155.983 247.801 157.51C245.408 159.037 244.588 158.98 244.702 160.564C244.804 162.148 243.494 164.381 244.531 165.908C245.568 167.435 245.283 170.273 245.169 172.62C245.055 174.968 245.602 175.617 244.463 177.042C243.312 178.455 243.699 179.435 241.625 179.275C239.551 179.116 239.654 178.808 237.34 178.717C235.027 178.626 235.187 175.834 234.093 178.569C233.01 181.292 232.839 181.019 233.249 182.386C233.66 183.754 234.708 185.292 235.426 186.91C236.144 188.54 235.551 188.574 236.93 189.645C238.309 190.705 237.91 190.842 240.474 190.785C243.038 190.728 243.369 190.944 245.169 191.765C246.97 192.585 247.813 193.03 249.875 193.953C251.881 194.853 252.656 196.323 253.807 196.95Z" fill="#EDEDED"/>
<path id="region-path-8" d="M268.086 140.108C267.049 141.772 266.138 143.322 265.853 143.789L265.465 143.937C265.465 143.937 262.149 146.763 261.34 147.527C260.52 148.29 259.585 149.977 257.842 151.014C256.098 152.051 256.953 152.187 254.229 152.586C252.93 152.78 252.201 152.563 251.779 152.506C251.517 152.279 251.221 152.005 250.868 151.675C248.896 149.817 250.56 152.233 248.247 149.384C245.933 146.524 248.417 147.698 245.933 146.524C243.438 145.339 244.11 144.985 242.742 145.054C241.375 145.122 242.139 144.575 240.167 145.122C238.207 145.669 239.62 144.473 237.546 146.763C235.483 149.054 236.407 149.487 235.016 149.703C233.626 149.92 232.828 149.772 232.202 149.92C231.586 150.079 231.222 147.333 230.242 150.432C229.261 153.521 229.808 154.284 229.592 155.595C229.364 156.905 229.592 157.669 228.281 158.216C226.971 158.763 226.641 158.979 224.35 158.979C222.059 158.979 222.151 159.469 220.521 159.389C218.892 159.31 220.111 157.646 217.866 160.278C215.621 162.911 214.63 164.768 215.234 165.304C215.838 165.851 216.635 166.614 215.199 167.651C214.299 168.301 213.49 169.19 213.023 169.759C210.527 168.346 208.863 167.013 207.621 164.711C206.288 162.238 208.351 162.056 205.354 160.404C202.357 158.74 201.194 158.74 200.75 156.848C200.317 154.968 200.237 157.019 199.815 154.353C199.394 151.686 203.017 153.475 198.334 150.512C193.65 147.549 190.14 151.469 190.277 147.253C190.425 143.037 196.237 142.832 190.277 140.461C184.317 138.091 181.993 140.997 181.993 137.065C181.993 133.134 183.007 130.809 183.155 127.903C183.303 124.998 181.514 124.644 180.238 120.964C178.973 117.294 177.902 116.998 178.779 115.687C179.132 115.163 178.756 113.705 178.187 112.143C181.617 110.286 192.932 103.95 193.411 100.998C193.981 97.5 196.009 93.5799 188.887 87.3238C188.887 87.3238 184.682 80.532 189.331 73.4326C193.981 66.3331 200.522 69.2048 202.63 70.2076C204.738 71.2104 208.955 79.5748 209.98 82.0476C211.006 84.5204 211.724 86.6286 212.67 87.0617C213.593 87.4947 219.723 88.3949 225.877 88.1784C225.74 90.7994 225.672 94.0585 226.116 94.5486C226.88 95.3918 225.569 96.8049 226.116 101.283C226.663 105.75 225.501 105.864 227.769 107.277C230.036 108.702 232.954 103.961 234.082 107.277C235.199 110.605 233.375 110.947 235.689 114.024C238.002 117.1 237.649 118.08 240.623 118.958C243.597 119.835 243.962 116.257 245.295 121.317C246.628 126.376 246.845 126.49 246.845 129.647C246.845 132.804 244.885 135.538 248.474 135.538C252.064 135.538 253.283 135.219 254.81 136.849C256.337 138.49 254.913 138.159 259.505 136.849C264.086 135.538 264.383 135.63 265.705 137.498C266.867 139.128 266.673 139.345 268.086 140.108Z" fill="#EDEDED"/>
<path id="region-path-9" d="M343 154.273L342.259 156.301L340.766 157.977C339.592 158.9 336.584 161.236 335.068 161.429C333.621 161.817 329.405 161.281 327.912 161.11L323.24 161.464C322.613 161.714 321.337 161.954 320.664 161.919C318.476 160.632 316.414 157.749 313.873 157.054C311.81 157.031 309.235 157.942 309.542 160.438C309.736 161.008 310.089 162.261 309.782 162.831L308.779 163.823L309.804 164.461V164.495C314.066 166.922 317.656 173.919 320.209 177.919L329.188 187.673C330.886 191.4 333.359 197.462 333.2 201.644L330.955 203.855C330.373 205.735 330.157 208.186 330.955 210.032C331.251 210.26 331.752 210.795 331.832 211.183L331.638 211.684L330.955 212.106C330.202 211.844 327.354 210.453 326.556 210.863C326.237 211.673 325.359 213.963 324.71 214.556C323.08 211.855 322.271 207.707 319.08 206.294C317.337 206.556 315.958 209.131 314.044 208.835C313.337 208.698 311.468 208.277 310.83 208.732C309.417 210.533 308.938 213.61 307.742 215.524H305.782C304.346 215.239 300.813 214.647 299.4 215.125C297.326 217.872 295.64 219.627 291.97 218.157C290.785 216.937 290.01 214.727 288.643 213.678C286.113 213.473 284.711 215.524 283.253 217.199C281.885 217.826 279.857 218.772 280.335 220.618C280.768 221.108 281.897 221.53 282.523 221.644C283.139 221.769 284.016 223.421 284.335 223.889C284.426 224.641 283.8 225.541 283.914 226.282L285.839 225.78C286.295 225.814 289.167 229.894 289.497 230.27C290.477 233.415 292.985 239.854 294.739 242.623L294.113 243.159C289.452 242.931 290.774 245.392 287.948 247.648C287.412 246.361 285.612 244.549 285.053 243.272C284.757 242.475 284.951 241.381 284.859 240.56C283.936 239.022 281.452 237.711 279.743 237.427C278.467 237.575 273.874 237.757 272.905 238.703C273.293 239.216 273.612 240.253 273.988 240.777L271.675 241.529C270.467 242.566 259.208 250.098 259.14 251.717L261.225 252.776C253.658 262.075 254.787 266.292 256.872 277.357C252.815 276.479 247.117 276.81 243.163 278.029L240.508 280.593C239.995 281.972 238.388 285.881 238.867 287.362C239.551 290.006 242.035 293.527 242.32 296.285C242.069 296.98 241.214 297.948 240.576 298.313L239.71 299.646C239.516 304.011 242.582 308.934 244.85 312.466C245.773 313.333 247.436 315.247 248.154 316.295C248.849 318.039 249.225 321.184 249.02 323.042C248.781 323.623 248.257 324.945 248.029 325.514C246.946 326.802 244.964 328.17 243.482 328.91C243.824 329.434 244.28 330.54 244.291 331.178L243.972 331.907L243.06 332.033C241.704 330.848 240.246 331.292 239.163 332.568C238.263 332.033 235.619 331.793 234.594 331.714L233.431 330.95C233.534 327.417 233.386 322.529 231.802 322.118C229.295 321.469 228.622 319.292 225.796 316.01C222.981 312.729 223.403 314.267 218.56 309.036C213.717 303.817 216.52 304.33 210.412 301.39C204.304 298.438 205.763 296.353 203.86 290.803C201.957 285.254 200.965 282.188 202.162 279.351C203.358 276.513 205.375 271.294 205.763 268.514C206.15 265.722 205.033 265.129 202.435 264.662C199.837 264.195 200.555 263.705 199.974 261.038C199.381 258.36 201.364 258.976 203.86 256.514C206.355 254.041 205.033 254.873 205.58 250.725C206.127 246.577 204.486 245.381 205.364 239.922C206.23 234.464 204.053 235.888 202.732 229.883C201.41 223.889 204.384 226.612 215.232 226.988C226.081 227.364 235.585 227.376 235.038 226.988C234.491 226.601 234.491 220.618 233.443 216.105C232.702 212.96 233.773 210.328 234.48 209.017C234.708 208.619 234.89 208.334 234.981 208.208C235.015 208.151 235.038 208.129 235.038 208.129C235.038 208.129 237.123 209.029 238.468 208.858C239.801 208.687 241.887 205.713 241.887 205.713C241.887 205.713 243.459 205.678 246.798 205.314C250.149 204.961 251.96 202.944 251.96 202.944C251.96 202.944 252.006 202.978 252.086 203.046C252.542 203.388 254.114 204.619 255.527 205.975C257.202 207.57 261.692 209.439 265.419 210.043C269.156 210.658 273.202 209.177 277.863 208.379C282.512 207.57 283.241 206.624 286.74 203.57C290.227 200.516 290.364 200.744 293.133 200.596C295.913 200.437 293.349 198.123 292.62 195.422C291.879 192.733 289.064 191.867 287.241 192.084C285.429 192.3 284.199 190.135 284.199 190.135C284.199 190.135 287.606 186.921 292.62 185.394C297.634 183.867 299.024 185.748 302.374 187.503C305.725 189.246 308.004 188.995 309.77 187.503C311.536 185.998 308.779 183.355 308.049 181.463C307.32 179.571 308.118 175.275 307.867 169.6C307.616 163.937 300.916 159.618 298.899 158.364C296.882 157.111 284.267 148.769 278.751 146.912C273.247 145.054 265.772 143.937 265.772 143.937C265.772 143.937 265.795 143.892 265.852 143.801C266.137 143.322 267.048 141.772 268.085 140.108C268.552 139.356 269.054 138.57 269.532 137.852C271.265 135.265 269.168 126.798 267.208 122.65C265.236 118.502 266.33 115.505 266.661 114.582C266.991 113.648 271.185 115.232 272.712 111.688C274.239 108.144 275.88 106.503 280.028 106.366C284.176 106.229 284.859 103.756 287.731 102.343C290.614 100.919 290.534 99.8364 291.116 96.8507C291.697 93.8651 291.446 84.1219 291.241 82.8342C291.036 81.5465 291.594 80.0423 286.956 80.2132C282.318 80.3727 282.421 87.0847 278.501 90.9592C274.569 94.8337 272.769 88.2813 268.518 84.7942C264.256 81.3072 263.174 76.5552 267.481 74.5382C271.47 72.6693 271.413 67.8946 271.378 67.188C271.538 66.8918 271.686 66.6069 271.789 66.3904C272.153 65.661 272.883 65.2964 273.43 64.9317C273.977 64.5671 273.943 64.0201 275.105 64.0543C276.267 64.0998 276.119 65.0001 277.68 64.134C279.241 63.2566 278.808 63.5529 279.606 63.0742C280.415 62.607 280.632 63.8377 281.031 61.8777C281.429 59.9177 281.441 59.8151 281.783 58.9035C282.125 57.9804 282.159 58.0602 283.105 57.3651C284.05 56.6813 283.503 56.6016 284.666 56.0888C285.828 55.5874 286.341 56.4078 286.592 55.1087C286.854 53.7982 286.626 54.1971 286.592 52.898V52.4764C287.412 52.4764 288.552 52.4308 289.042 52.4194C289.68 52.2029 292.13 51.4508 292.814 51.2456C293.645 51.1773 295.286 50.8354 296.039 50.4707C296.483 50.2086 304.642 43.8727 305.03 44.4425C305.668 45.0237 305.77 46.2088 306.352 46.8242C307.377 47.0179 308.653 46.0493 309.656 45.9809C310.237 46.072 313.85 47.0521 314.363 46.6988C314.716 46.4367 315.434 46.2544 315.878 46.3341C316.733 47.166 318.26 49.0007 319.639 48.0891V47.9751C320.026 48.4309 320.573 49.0577 321.018 49.4451C321.542 50.2314 321.69 51.5077 321.713 52.4308L321.405 52.784L320.938 52.898C319.388 55.9862 318.271 69.4444 315.73 71.9856C312.779 74.071 312.072 76.031 311.092 79.3471L306.955 86.4238C306.728 86.7656 305.941 87.1645 305.599 87.3696C304.745 88.0875 305.052 89.7741 305.075 90.7427C305.041 91.2669 304.688 92.1444 304.414 92.6002H304.391C303.879 94.0816 301.28 94.6172 300.027 95.0502C299.355 96.3835 300.904 101.147 301.212 102.457L301.041 105.842C300.574 106.753 299.457 108.44 298.785 109.192L298.033 111.756C298.01 115.437 299.959 119.984 302.409 122.696C303.48 123.414 306.693 124.086 307.958 124.348C308.972 124.918 310.579 125.704 311.787 125.579C312.505 125.408 314.921 124.656 315.628 125.078C317.542 126.331 318.989 129.077 319.719 131.197C319.719 132.211 319.958 134.365 320.459 135.254C321.416 136.553 324.619 138.866 325.952 139.846C326.248 140.165 327.08 141.009 327.502 141.134L328.015 140.997L329.006 139.983L329.542 139.96L330.282 140.929L330.476 143.128C330.749 143.675 331.923 144.758 332.39 145.168C332.755 145.704 334.134 147.755 334.487 148.256L337.359 149.931C337.792 150.49 339 152.028 339.615 152.359C339.832 152.153 340.288 151.538 340.47 151.287L341.256 151.003L342.35 151.994L343 154.273Z" fill="#EDEDED"/>
<path id="region-path-10" d="M309.77 187.503C308.004 188.995 305.725 189.246 302.374 187.503C299.024 185.748 297.634 183.867 292.62 185.394C287.606 186.921 284.199 190.135 284.199 190.135C283.834 190.135 283.253 188.71 282.261 187.673C281.281 186.636 281.726 187.617 278.615 186.91C275.504 186.203 274.797 186.636 271.96 186.648C269.122 186.648 268.302 186.363 265.521 187.4C262.741 188.437 264.37 188.437 263.766 190.135C263.174 191.833 263.06 192.745 262.741 193.782C262.41 194.819 261.749 195.969 260.667 196.949C259.573 197.93 259.789 197.44 257.556 197.713C255.311 197.986 255.094 197.61 253.898 197.006C253.863 196.995 253.829 196.972 253.806 196.949C252.655 196.323 251.881 194.853 249.875 193.952C247.812 193.029 246.969 192.585 245.169 191.764C243.368 190.944 243.038 190.728 240.474 190.784C237.91 190.841 238.308 190.705 236.93 189.645C235.551 188.574 236.143 188.54 235.425 186.91C234.707 185.292 233.659 183.753 233.249 182.386C232.839 181.018 233.009 181.292 234.092 178.568C235.186 175.833 235.027 178.625 237.34 178.717C239.653 178.808 239.551 179.115 241.625 179.275C243.699 179.434 243.311 178.454 244.462 177.041C245.602 175.617 245.055 174.967 245.169 172.62C245.283 170.272 245.567 167.435 244.53 165.908C243.493 164.381 244.804 162.147 244.701 160.563C244.587 158.979 245.408 159.036 247.801 157.509C250.205 155.982 250.866 155.652 251.083 153.635C251.197 152.587 251.311 152.45 251.778 152.507C252.2 152.564 252.929 152.78 254.228 152.587C256.952 152.188 256.097 152.051 257.84 151.014C259.584 149.977 260.518 148.29 261.339 147.527C262.148 146.763 265.464 143.937 265.464 143.937L265.852 143.801C265.795 143.892 265.772 143.937 265.772 143.937C265.772 143.937 273.247 145.054 278.751 146.912C284.267 148.769 296.882 157.111 298.899 158.364C300.916 159.618 307.616 163.937 307.867 169.6C308.118 175.275 307.32 179.571 308.049 181.463C308.779 183.355 311.536 185.998 309.77 187.503Z" fill="#EDEDED"/>
<path id="region-path-11" d="M251.961 202.944C251.961 202.944 250.149 204.961 246.799 205.315C243.46 205.679 241.887 205.713 241.887 205.713C241.887 205.713 239.802 208.688 238.468 208.859C237.124 209.03 235.038 208.129 235.038 208.129C235.038 208.129 235.016 208.152 234.981 208.209C234.993 207.525 235.095 206.682 235.426 206.044C236.098 204.733 236.315 203.206 236.531 201.679C236.748 200.152 236.098 199.993 236.828 198.466C237.545 196.95 236.246 196.301 238.355 196.517C240.463 196.734 240.679 196.437 243.004 197.531C245.329 198.625 245.773 198.557 247.368 199.64C248.975 200.734 249.477 201.463 250.058 201.828C250.639 202.192 251.961 202.944 251.961 202.944Z" fill="#EDEDED"/>
<path id="region-path-12" d="M293.133 200.597C290.364 200.745 290.227 200.517 286.74 203.571C283.241 206.625 282.512 207.571 277.863 208.38C273.202 209.178 269.157 210.659 265.419 210.044C261.692 209.44 257.203 207.571 255.527 205.975C254.114 204.619 252.542 203.389 252.086 203.047L252.211 200.414L253.807 196.95C253.807 196.95 253.864 196.996 253.898 197.007C255.094 197.611 255.311 197.987 257.556 197.714C259.789 197.44 259.573 197.93 260.667 196.95C261.749 195.97 262.41 194.819 262.741 193.782C263.06 192.745 263.174 191.834 263.766 190.136C264.37 188.438 262.741 188.438 265.521 187.401C268.302 186.364 269.122 186.66 271.96 186.649C274.797 186.637 275.504 186.204 278.615 186.911C281.726 187.617 281.281 186.637 282.261 187.674C283.253 188.711 283.834 190.136 284.199 190.136C284.199 190.136 285.429 192.301 287.241 192.084C289.065 191.868 291.879 192.734 292.62 195.423C293.349 198.124 295.913 200.437 293.133 200.597Z" fill="#EDEDED"/>
<path id="region-path-13" d="M291.105 96.8512C290.524 99.8369 290.604 100.919 287.72 102.344C284.849 103.757 284.165 106.23 280.017 106.367C275.869 106.503 274.228 108.144 272.701 111.688C271.174 115.232 266.981 113.648 266.65 114.583C266.32 115.506 265.226 118.503 267.197 122.651C269.157 126.799 271.254 135.266 269.522 137.853C269.043 138.57 268.542 139.357 268.075 140.109C266.661 139.345 266.855 139.129 265.693 137.499C264.371 135.63 264.075 135.539 259.494 136.85C254.901 138.16 256.326 138.491 254.799 136.85C253.272 135.22 252.064 135.539 248.463 135.539C244.862 135.539 246.833 132.816 246.833 129.648C246.833 126.48 246.617 126.377 245.283 121.318C243.95 116.258 243.585 119.836 240.611 118.959C237.637 118.081 237.99 117.101 235.677 114.024C233.364 110.948 235.187 110.606 234.07 107.278C232.942 103.962 230.025 108.703 227.757 107.278C225.489 105.865 226.652 105.751 226.105 101.284C225.558 96.8057 226.868 95.3926 226.105 94.5493C225.66 94.0593 225.729 90.8002 225.865 88.1792C226.048 88.1678 226.23 88.1678 226.412 88.1564C232.737 87.8715 236.224 87.6778 235.027 83.5868C233.831 79.5072 225.387 76.1569 218.481 73.4675C211.564 70.7782 205.467 67.4279 207.61 63.2115C209.752 58.9951 219.119 61.9694 222.469 60.5905C225.82 59.2117 227.768 58.6533 229.238 54.0039C230.72 49.3659 229.877 44.6367 240.417 45.5598C250.958 46.4828 239.757 48.4542 244.212 50.9613C248.668 53.4569 251.061 50.8473 255.653 50.8473C260.246 50.8473 266.217 52.3743 266.445 54.0039C266.456 54.1178 266.479 54.2546 266.513 54.4027C266.821 56.2944 267.744 60.4766 267.972 63.3482C268.211 66.4251 268.792 67.1886 271.368 67.1088V67.1886C271.402 67.8951 271.459 72.6698 267.471 74.5387C263.163 76.5557 264.246 81.3077 268.508 84.7947C272.758 88.2818 274.559 94.8342 278.49 90.9597C282.41 87.0852 282.308 80.3732 286.946 80.2137C291.584 80.0428 291.025 81.547 291.23 82.8347C291.435 84.1224 291.686 93.8656 291.105 96.8512Z" fill="#EDEDED"/>
<path id="region-path-14" d="M274.741 50.8247C274.57 51.3147 274.41 51.8161 274.24 52.3289C273.054 55.8957 273.522 53.3431 271.345 54.6878C269.18 56.0325 269.362 55.1094 269.157 53.5027C268.941 51.9073 269.875 50.2891 268.929 49.1951C268.781 49.0242 268.599 48.8989 268.382 48.7963C267.254 48.2721 265.374 48.6254 264.257 48.2493C262.924 47.8049 264.348 46.369 264.257 45.56C264.166 44.7509 261.955 44.6939 259.551 41.8564C257.146 39.0189 257.009 41.412 252.782 40.8308C248.565 40.2496 247.118 37.1842 244.395 33.9365C242.605 31.8055 242.526 28.7401 242.685 26.8826C242.822 26.9738 242.947 27.0535 243.073 27.1105V27.1333C244.349 28.1133 246.685 28.6945 248.28 28.5691C248.326 27.2245 247.54 25.5151 247.745 24.1932C248.178 23.9881 249.238 23.5095 249.739 23.6918C250.491 23.8742 251.733 24.3414 252.451 23.8286C252.804 23.6121 253.83 22.9397 254.263 22.9739L254.924 23.293C255.904 24.5807 255.972 27.0763 257.739 27.6461L258.559 27.1789C259.026 26.4154 258.935 25.1961 259.722 24.6377L260.314 24.5807C262.149 25.6861 263.892 32.1701 265.602 33.4692C267.892 34.7228 270.627 32.9792 270.593 36.9335C270.582 37.4007 271.026 37.9021 271.288 38.2554C271.539 38.5745 271.208 39.5659 271.163 39.9191C270.388 40.4433 268.827 41.6171 268.61 42.5971L269.556 46.1639C270.616 47.406 273.214 50.141 274.718 50.8133H274.741V50.8247Z" fill="#EDEDED"/>
<path id="region-path-15" d="M240.485 24.9215C240.314 25.1836 240.166 25.4229 240.075 25.628C239.721 26.4029 239.642 28.5794 239.14 29.3543C238.639 30.1292 236.2 30.6534 234.24 31.303C232.269 31.9639 231.505 31.793 231.505 34.1975C231.505 36.6019 229.443 36.7045 227.859 37.1831C226.275 37.6617 224.691 36.8754 222.013 35.1775C219.346 33.4909 220.269 32.5109 219.164 30.7104C218.058 28.9099 217.215 29.5595 215.927 29.1834C214.64 28.8074 215.141 27.9755 213.945 26.4257C213.375 25.6964 212.976 24.4087 212.714 23.2691C214.469 23.3831 216.292 23.0526 217.648 21.9472C218.434 20.7507 218.264 18.8704 218.503 17.5143L219.46 16.3064L221.625 15.8506C223.152 16.1355 226.514 18.6425 227.745 19.5655C233.716 21.8447 235.038 18.2551 240.428 24.8645C240.428 24.8645 240.451 24.8987 240.473 24.9215H240.485Z" fill="#EDEDED"/>
</svg>
